<svg xmlns="http://www.w3.org/2000/svg" width="120mm" height="120mm" viewBox="0 0 120 120"><rect width="120" height="120" fill="#F5F5F5"/><g transform="translate(-6.952 .391)scale(.26458)"><path d="M372.776 244.983c11.071-5.38 19.988-11.205 26.738-17.483 6.751-6.271 11.996-12.63 15.742-19.063q5.61-9.651 7.513-18.908c1.263-6.17 1.897-11.887 1.897-17.166q.002-12.334-5.454-17.085c-3.639-3.166-8.944-4.746-15.904-4.746h-56.797q-8.859 0-14.79-1.741-5.936-1.742-9.495-5.063-3.56-3.32-5.063-8.067c-1.002-3.166-1.503-6.75-1.503-10.76q0-12.183.554-19.698.553-7.513 2.215-12.972a45 45 0 0 1 4.588-10.284q2.927-4.824 7.833-11.47c.526-.633.844-1.133.945-1.503q.162-.554.162-.87 0-1.582-1.823-3.085c-1.208-1.002-2.977-2.4-5.298-4.193q-6.012-4.746-9.967-8.86t-3.956-8.385q0-2.373 1.741-5.538 1.74-3.163 4.509-6.724 2.768-3.559 6.328-7.356a327 327 0 0 1 7.197-7.436q1.428 0 3.321.633 1.902.633 3.166 1.424c-.419 2.004-.581 3.665-.473 4.983q.16 1.978 1.344 3.797 1.187 1.82 3.638 3.797c1.634 1.319 3.828 3.033 6.568 5.142q6.643 5.063 9.336 8.069 2.685 3.006 2.687 6.013.002 2.372-1.425 5.141-1.42 2.769-3.638 5.616a94 94 0 0 1-4.982 5.854 647 647 0 0 1-5.461 5.854q-2.683 2.848-4.273 5.459a26.4 26.4 0 0 0-2.531 5.537c-.628 1.952-1.053 4.114-1.263 6.486q-.315 3.561-.317 8.148-.002 5.061.635 8.31c.418 2.16 1.289 3.875 2.612 5.137q1.974 1.904 5.691 2.612 3.717.71 9.734.709h54.266c6.534 0 12.13 1.006 16.768 3.011 4.644 2.005 8.438 4.718 11.394 8.147q4.423 5.144 6.487 11.868c1.371 4.482 2.052 9.254 2.052 14.317 0 9.808-1.606 20.541-4.826 32.192q-4.82 17.485-14.318 35.204c-6.325 11.813-14.108 23.282-23.336 34.413-9.227 11.125-19.852 21.122-31.875 29.978q-3.643-.475-6.487-1.741a440 440 0 0 1 3.402-18.827 459 459 0 0 1 4.192-18.827m-102.206 40.03q-.317-3.168-.633-8.938-.317-5.78-.633-12.339a546 546 0 0 1-.475-13.211 492 492 0 0 1-.158-11.394q0-16.292.475-27.927.474-11.625 1.107-20.325.634-8.708 1.107-15.35.476-6.644.476-12.974c0-1.58-.37-2.876-1.108-3.875q-1.108-1.498-3.006-2.532-1.899-1.032-4.351-1.66a108 108 0 0 1-4.983-1.424 699 699 0 0 1-11.155-3.241q-4.983-1.507-8.622-3.483t-5.617-4.671q-1.977-2.683-1.977-6.642c0-1.479.343-3.612 1.028-6.407q1.029-4.19 2.69-9.018a132 132 0 0 1 3.717-9.572q2.058-4.747 3.956-8.067 1.265-.789 3.402-.87 2.135-.08 3.876.236.95 3.798 2.61 6.251 1.661 2.45 4.509 4.192 2.848 1.74 6.961 3.003 4.114 1.268 10.126 2.849c3.586.952 6.54 1.843 8.86 2.687q3.48 1.265 5.379 2.612c1.266.898 2.136 1.87 2.61 2.93q.713 1.581.713 3.476 0 1.266-.475 4.192a338 338 0 0 0-.949 6.251q-.792 5.38-1.661 13.055-.87 7.677-.87 19.536 0 16.616 1.502 32.989 1.504 16.373 3.718 31.247.95 6.64 1.74 12.502.792 5.853.792 9.012 0 3.009-.633 4.752c-.422 1.161-1.108 2.369-2.057 3.638a562 562 0 0 0-7.04 9.491 226 226 0 0 0-6.25 9.019 40 40 0 0 1-8.701 0M69.483 101.963q2.057 4.586 4.35 7.196c1.53 1.742 3.297 3.058 5.301 3.956q3.006 1.347 6.961 1.742 3.956.393 9.334.391h74.518c6.645 0 12.209.479 16.692 1.424q6.724 1.428 10.758 4.192 4.034 2.775 5.696 6.967 1.66 4.19 1.661 9.727 0 5.376-1.661 11.786a1642 1642 0 0 0-3.56 14q0 23.423 2.057 41.691 2.056 18.276 3.955 32.199l1.74 12.177q.791 5.541.791 8.702 0 3.009-.633 4.752c-.421 1.161-1.107 2.369-2.056 3.638a238 238 0 0 0-6.329 9.174 169 169 0 0 0-5.695 9.336 40 40 0 0 1-8.702 0c-.317-2.005-.66-4.908-1.029-8.701a508 508 0 0 1-1.028-12.266 561 561 0 0 1-.791-13.048c-.211-4.327-.317-8.074-.317-11.233q0-13.77.08-23.734c.053-6.642.132-12.313.237-17.004.105-4.699.211-8.627.317-11.793q.157-4.739.316-8.222.158-4.273.237-7.594.08-3.322.079-7.594 0-3.8-.474-6.332-.475-2.532-2.136-4.111c-1.107-1.053-2.769-1.796-4.984-2.214-2.215-.426-5.168-.635-8.86-.635H91.316a552 552 0 0 0-1.028 24.76c-.158 8.283-.237 16.532-.237 24.761q0 16.293.316 32.435c.211 10.754.422 21.676.633 32.746q0 1.428-.238 2.694-.237 1.263-1.344 2.052-2.374 1.901-5.063 4.037a1010 1010 0 0 0-5.142 4.11 240.43 240.43 0 0 0-8.148 6.886 31.7 31.7 0 0 1-7.752 0 3517 3517 0 0 1 3.797-67.639 717 717 0 0 1 7.594-66.997c-3.059-.216-5.88-.554-8.464-1.033q-3.877-.708-6.724-2.369a11.74 11.74 0 0 1-4.43-4.51q-1.582-2.853-1.582-7.438c0-.945.211-2.478.633-4.591q.632-3.159 1.82-7.432 1.186-4.272 2.847-9.417a307 307 0 0 1 3.56-10.361 12.2 12.2 0 0 1 3.48-1.107q1.899-.316 3.64-.156" style="fill:#941003;fill-opacity:1;fill-rule:evenodd;stroke:none"/></g><g transform="translate(-6.952 .391)scale(.26458)"><path d="M45.928 412.284v-6.849l10.399-1.743v-77.646l-9.963-1.682v-6.849h34.87v6.849l-10.648 1.682v33.499h43.897v-33.499l-10.087-1.682v-6.849h34.371v6.849l-9.962 1.682v77.708l9.962 1.681v6.849h-34.246v-6.849l9.962-1.681v-36.115H70.585v36.115l10.648 1.681v6.849zm136.529 1.433q-7.907 0-13.854-2.74t-9.933-7.659q-3.983-4.919-5.975-11.737-1.994-6.818-1.995-14.975c0-5.521.833-10.554 2.491-15.1 1.661-4.545 3.978-8.448 6.942-11.706a30.9 30.9 0 0 1 10.556-7.565q6.1-2.678 13.326-2.678 11.765 0 18.243 6.383 6.477 6.382 7.035 18.897.062 4.048-.06 7.067-.126 3.021-.624 5.324h-43.088v.374q.249 7.099 2.055 12.142 1.806 5.044 4.7 8.25 2.896 3.207 6.631 4.67a21.2 21.2 0 0 0 7.783 1.463q2.678 0 5.419-.498a42 42 0 0 0 5.261-1.307 31.5 31.5 0 0 0 4.608-1.868c1.389-.706 2.543-1.412 3.454-2.117l2.618 6.102q-1.809 1.806-4.577 3.487-2.774 1.68-6.164 2.958a47.6 47.6 0 0 1-7.194 2.054 38 38 0 0 1-7.658.779m-1.555-66.688q-3.114 0-5.792 1.09-2.677 1.089-4.7 3.705-2.026 2.615-3.302 6.974-1.274 4.358-1.587 10.958h28.891c.085-.83.134-1.702.156-2.615q.032-1.37.032-2.553.001-3.486-.748-6.662-.747-3.175-2.366-5.604a11.9 11.9 0 0 0-4.205-3.861q-2.581-1.432-6.379-1.432m43.254 61.768v-91.282l-10.212-1.121v-5.915l20.733-2.802h.251l3.114 2.117v38.169a40 40 0 0 1 3.641-3.082 26.6 26.6 0 0 1 4.485-2.709q2.455-1.183 5.416-1.899 2.954-.716 6.383-.716 5.352 0 10.397 1.961 5.042 1.962 8.905 6.165 3.857 4.203 6.195 10.803 2.333 6.6 2.334 15.878.001 8.157-2.522 15.349-2.522 7.191-7.254 12.515-4.73 5.324-11.52 8.406c-4.523 2.055-9.61 3.083-15.252 3.083q-4.671 0-8.969-.53-4.295-.529-7.659-1.307-3.362-.779-5.604-1.619t-2.862-1.464m28.019-59.713q-2.49 0-4.672.592-2.178.59-3.953 1.525a20 20 0 0 0-3.174 2.055q-1.403 1.12-2.334 2.179v46.887q.434 1.058 1.555 1.837 1.122.777 2.738 1.307 1.62.53 3.613.81 1.991.28 4.233.28 4.422 0 8.126-1.868 3.708-1.868 6.415-5.604 2.71-3.736 4.265-9.34 1.556-5.604 1.683-13.138.123-6.975-1.247-12.142-1.37-5.169-3.861-8.593c-1.662-2.283-3.631-3.985-5.916-5.106q-3.421-1.681-7.471-1.681m44.388 28.829q.002-7.783 2.43-14.726 2.429-6.942 7.067-12.204t11.364-8.344q6.722-3.082 15.193-3.082 3.112 0 5.975.405 2.865.405 5.324.996 2.46.591 4.389 1.277 1.935.684 3.178 1.245l-.624 18.306h-8.406l-2.802-10.336a10.84 10.84 0 0 0-4.077-3.269q-2.461-1.152-6.011-1.152-3.547 0-6.787 1.619-3.236 1.619-5.76 4.888-2.519 3.269-4.045 8.157c-1.016 3.259-1.548 7.067-1.587 11.426q-.063 8.405 1.647 14.321c1.145 3.944 2.668 7.15 4.577 9.62 1.913 2.47 4.13 4.265 6.663 5.386a19.3 19.3 0 0 0 7.91 1.681q2.927 0 5.508-.498a30 30 0 0 0 4.764-1.307 27 27 0 0 0 3.985-1.837 34 34 0 0 0 3.178-2.024l2.738 5.978q-1.68 1.743-4.173 3.393-2.488 1.65-5.572 2.958a40.4 40.4 0 0 1-6.507 2.117q-3.423.81-6.975.81-8.029 0-14.101-2.772-6.074-2.77-10.149-7.565-4.08-4.794-6.163-11.363-2.088-6.57-2.151-14.104m64.508 15.691q0-4.483 1.683-8.001a20.1 20.1 0 0 1 4.605-6.195q2.929-2.677 6.883-4.546 3.953-1.868 8.529-3.051a69 69 0 0 1 9.525-1.743q4.952-.56 9.809-.685v-3.3q-.001-4.36-.623-7.379-.622-3.02-2.147-4.919t-4.081-2.74q-2.549-.84-6.475-.84-3.362 0-6.723.623a65 65 0 0 0-6.447 1.525 64 64 0 0 0-5.664 1.93q-2.584 1.028-4.329 1.899h-.06l-2.802-5.977c.786-.748 2.179-1.702 4.169-2.864q2.992-1.744 7.067-3.363 4.08-1.618 8.781-2.802a38.3 38.3 0 0 1 9.37-1.183q6.54 0 11.055 1.339c3.007.892 5.448 2.324 7.315 4.296q2.8 2.958 4.017 7.659c.807 3.134 1.215 6.963 1.215 11.488v40.598h7.718v6.04q-1.18.31-2.834.716-1.647.405-3.453.747-1.808.342-3.674.591-1.87.25-3.549.25-1.742 0-3.021-.156-1.275-.156-2.087-.81-.807-.653-1.211-1.961-.409-1.308-.408-3.549v-2.304q-.807.747-2.646 2.21-1.834 1.464-4.513 2.927-2.677 1.463-6.103 2.553-3.423 1.09-7.347 1.09-4.297 0-8.186-1.152-3.892-1.152-6.85-3.581-2.959-2.429-4.733-6.258-1.775-3.829-1.775-9.122m26.9 10.586q1.308 0 3.114-.343a31 31 0 0 0 3.734-.965 28 28 0 0 0 3.829-1.557 24 24 0 0 0 3.457-2.054v-22.914q-7.472 0-12.483 1.307-5.016 1.308-8.002 3.456-2.99 2.149-4.236 4.888a13.7 13.7 0 0 0-1.244 5.729q0 3.424.903 5.79.904 2.366 2.491 3.861 1.588 1.494 3.765 2.148 2.182.654 4.672.654m43.584 8.094v-6.849l10.276-1.059v-86.861l-10.276-1.121v-5.915l20.924-2.802h.124l3.114 2.179v94.52l10.772 1.059v6.849z" style="fill:#333;fill-opacity:1;fill-rule:evenodd;stroke:none"/></g></svg>