<svg version="1.2" baseProfile="tiny-ps" xmlns="http://www.w3.org/2000/svg" viewBox="0 0 120 120">
<title>Hebcal</title>
<desc>Hebcal Jewish Calendar logo</desc>
<rect width="120" height="120" fill="#F5F5F5"/>
<path fill="#941003" fill-rule="evenodd" d="M91.677 65.209q4.395-2.135 7.074-4.626 2.68-2.49 4.165-5.044t1.988-5.002.502-4.542q0-3.264-1.443-4.52-1.445-1.257-4.208-1.256H84.728q-2.344 0-3.913-.46-1.57-.462-2.512-1.34t-1.34-2.135-.398-2.847q0-3.223.147-5.211.146-1.988.586-3.433a12 12 0 0 1 1.214-2.72q.774-1.277 2.072-3.035.21-.252.25-.398.043-.146.043-.23 0-.419-.482-.816a56 56 0 0 0-1.402-1.11q-1.59-1.255-2.637-2.344t-1.047-2.218q0-.628.461-1.466.46-.836 1.193-1.779.732-.941 1.674-1.946a87 87 0 0 1 1.904-1.967q.378 0 .88.167.502.168.837.377-.168.796-.125 1.318.042.524.355 1.005.314.482.963 1.005.65.523 1.738 1.36 1.757 1.34 2.47 2.135.71.795.71 1.59.001.628-.376 1.361-.376.733-.963 1.486a25 25 0 0 1-1.318 1.549 171 171 0 0 1-1.445 1.549q-.71.753-1.13 1.444a7 7 0 0 0-.67 1.465 8 8 0 0 0-.334 1.716q-.084.942-.084 2.156 0 1.339.168 2.198.165.858.69 1.36.523.503 1.507.69.983.189 2.575.188h14.358q2.594 0 4.436.797 1.843.795 3.015 2.155 1.17 1.361 1.716 3.14.544 1.779.543 3.789 0 3.893-1.277 8.517-1.275 4.626-3.788 9.314T99.818 67.7a47.5 47.5 0 0 1-8.434 7.932q-.964-.126-1.716-.46a116 116 0 0 1 .9-4.982 121 121 0 0 1 1.11-4.981m-27.043 10.59q-.083-.837-.167-2.364-.084-1.53-.168-3.265a145 145 0 0 1-.125-3.495 130 130 0 0 1-.042-3.015q0-4.31.126-7.389.125-3.075.293-5.377.167-2.304.292-4.062.126-1.757.126-3.432 0-.628-.293-1.025t-.795-.67-1.151-.44a29 29 0 0 1-1.319-.376 185 185 0 0 1-2.951-.858q-1.318-.399-2.281-.921t-1.486-1.236q-.524-.71-.524-1.758 0-.585.272-1.695.273-1.108.712-2.386a35 35 0 0 1 .984-2.532q.544-1.256 1.046-2.135.335-.208.9-.23.565-.021 1.026.063.251 1.005.69 1.654.44.648 1.193 1.109t1.842.794q1.089.336 2.68.754 1.422.377 2.344.71.92.336 1.423.692.502.356.69.775.189.418.189.92 0 .335-.126 1.109a89 89 0 0 0-.25 1.654q-.21 1.423-.44 3.454t-.23 5.169q0 4.396.397 8.728.398 4.332.984 8.267.25 1.757.46 3.308.21 1.549.21 2.385 0 .796-.168 1.257a3.8 3.8 0 0 1-.544.962 149 149 0 0 0-1.863 2.511 60 60 0 0 0-1.653 2.387 10.6 10.6 0 0 1-2.303 0M11.432 27.368q.544 1.214 1.15 1.904.608.691 1.403 1.047.796.356 1.842.46t2.47.104h19.716q2.637.001 4.416.377 1.779.378 2.846 1.11t1.507 1.843q.44 1.108.44 2.573 0 1.422-.44 3.118a434 434 0 0 0-.942 3.705q0 6.197.545 11.03.544 4.836 1.046 8.52l.46 3.221q.21 1.466.21 2.303 0 .796-.168 1.257a3.8 3.8 0 0 1-.544.962 63 63 0 0 0-1.674 2.428 45 45 0 0 0-1.507 2.47 10.6 10.6 0 0 1-2.302 0 42 42 0 0 1-.273-2.302 134 134 0 0 1-.272-3.246 148 148 0 0 1-.209-3.452 62 62 0 0 1-.084-2.972q0-3.643.021-6.28.021-2.636.063-4.498.042-1.865.084-3.12.041-1.254.084-2.176.041-1.13.062-2.01.021-.878.021-2.008 0-1.006-.125-1.676-.126-.67-.565-1.087-.44-.42-1.32-.586-.878-.169-2.343-.168H17.208a146 146 0 0 0-.272 6.55 343 343 0 0 0-.062 6.552q0 4.31.083 8.582l.168 8.664q0 .377-.063.712t-.356.543q-.628.503-1.34 1.068a267 267 0 0 0-1.36 1.088A64 64 0 0 0 11.85 75.8a8.4 8.4 0 0 1-2.05 0 931 931 0 0 1 1.004-17.896 190 190 0 0 1 2.01-17.726 20 20 0 0 1-2.24-.274q-1.026-.187-1.78-.626a3.1 3.1 0 0 1-1.171-1.194q-.419-.754-.419-1.968 0-.375.168-1.214.167-.836.481-1.967.314-1.13.753-2.491a81 81 0 0 1 .942-2.741 3.2 3.2 0 0 1 .921-.293q.502-.084.963-.042"/>
<path fill="#333" fill-rule="evenodd" d="M5.2 109.473v-1.812l2.751-.461V86.656l-2.636-.445V84.4h9.226v1.812l-2.817.445v8.863h11.614v-8.863l-2.669-.445V84.4h9.094v1.812l-2.636.445v20.56l2.636.445v1.812h-9.06v-1.812l2.635-.445v-9.555H11.723v9.555l2.818.445v1.812zm36.122.38q-2.092 0-3.665-.726t-2.628-2.026-1.581-3.105q-.528-1.804-.528-3.963 0-2.19.66-3.995.66-1.803 1.836-3.097a8.2 8.2 0 0 1 2.793-2.001q1.614-.709 3.526-.709 3.112 0 4.826 1.689 1.714 1.688 1.862 5 .016 1.07-.016 1.87-.033.799-.165 1.408h-11.4v.099q.065 1.878.543 3.212t1.244 2.183q.766.849 1.754 1.236a5.6 5.6 0 0 0 2.06.387q.708 0 1.433-.132a11 11 0 0 0 1.392-.346 8.3 8.3 0 0 0 1.22-.494q.551-.28.913-.56l.693 1.614q-.479.478-1.211.923-.734.445-1.631.783a12.6 12.6 0 0 1-1.903.543 10 10 0 0 1-2.027.206m-.41-17.644q-.825 0-1.533.288-.709.288-1.244.98-.536.692-.874 1.846-.337 1.153-.42 2.899h7.645q.033-.33.04-.692.01-.362.01-.675 0-.923-.199-1.763-.197-.84-.626-1.483a3.15 3.15 0 0 0-1.112-1.021q-.683-.38-1.688-.38m11.444 16.344V84.399l-2.702-.296v-1.565l5.486-.742h.066l.824.56v10.1a11 11 0 0 1 .963-.816 7 7 0 0 1 1.187-.717q.65-.313 1.433-.503.782-.189 1.689-.189 1.416 0 2.75.519t2.357 1.631q1.02 1.112 1.639 2.858.617 1.746.617 4.201 0 2.158-.667 4.061t-1.92 3.311q-1.25 1.41-3.047 2.225-1.796.815-4.035.815-1.236 0-2.373-.14t-2.027-.346-1.483-.428-.757-.387m7.413-15.8q-.658 0-1.236.157-.576.156-1.046.404a5.3 5.3 0 0 0-.84.543q-.37.297-.617.577v12.405q.115.28.412.486.296.206.724.346.429.14.956.215t1.12.074q1.17 0 2.15-.495.98-.494 1.697-1.482.717-.989 1.129-2.472.411-1.482.445-3.476.032-1.845-.33-3.212-.363-1.368-1.022-2.274t-1.565-1.35q-.905-.445-1.977-.445m11.745 7.627q0-2.059.643-3.896.642-1.837 1.87-3.229t3.006-2.208 4.02-.815q.823 0 1.58.107.759.107 1.41.264.65.156 1.16.338.512.18.841.329l-.165 4.843h-2.224l-.741-2.734a2.9 2.9 0 0 0-1.079-.865q-.651-.305-1.59-.305t-1.796.428-1.524 1.294q-.666.864-1.07 2.158-.404 1.293-.42 3.023-.017 2.224.436 3.789.454 1.565 1.21 2.545.759.981 1.764 1.425a5.1 5.1 0 0 0 2.092.445q.775 0 1.458-.132a8 8 0 0 0 1.26-.346 7 7 0 0 0 1.055-.486 9 9 0 0 0 .84-.535l.725 1.581q-.445.462-1.104.898-.659.437-1.475.783a10.7 10.7 0 0 1-1.721.56q-.906.214-1.846.214-2.124 0-3.73-.733-1.607-.733-2.686-2.002-1.08-1.268-1.63-3.006-.553-1.738-.57-3.732m17.068 4.152q0-1.186.445-2.117a5.3 5.3 0 0 1 1.219-1.64q.775-.708 1.82-1.202 1.047-.494 2.258-.807a18 18 0 0 1 2.52-.461q1.31-.149 2.595-.182v-.873q0-1.153-.165-1.952-.164-.8-.568-1.302t-1.08-.725q-.674-.222-1.713-.222-.89 0-1.779.165a17 17 0 0 0-1.705.404 17 17 0 0 0-1.499.51q-.684.272-1.145.503h-.016l-.742-1.582q.313-.297 1.103-.758.792-.46 1.87-.89 1.08-.427 2.324-.74a10.1 10.1 0 0 1 2.479-.314q1.73 0 2.925.355 1.193.354 1.935 1.136.74.783 1.063 2.027.32 1.243.321 3.04v10.74h2.042v1.599q-.312.082-.75.19-.435.106-.913.197-.478.09-.972.156-.495.066-.94.066-.46 0-.798-.041t-.553-.214-.32-.52-.108-.938v-.61q-.214.198-.7.585-.485.387-1.194.774-.708.387-1.615.676-.906.288-1.944.288-1.137 0-2.166-.305-1.03-.304-1.812-.947-.783-.643-1.252-1.656-.47-1.013-.47-2.413m7.117 2.8q.346 0 .824-.09a8 8 0 0 0 .988-.255 7.4 7.4 0 0 0 1.013-.412 6.4 6.4 0 0 0 .915-.544v-6.062q-1.977 0-3.303.345-1.327.346-2.117.915-.791.568-1.12 1.293a3.6 3.6 0 0 0-.33 1.516q0 .906.239 1.532.24.626.66 1.021.42.396.995.569.578.173 1.236.173m11.532 2.141v-1.812l2.719-.28V84.399l-2.72-.296v-1.565l5.537-.742h.033l.824.577v25.008l2.85.28v1.812z"/>
</svg>
