<?xml version="1.0" standalone="no"?>
<!DOCTYPE svg PUBLIC "-//W3C//DTD SVG 20010904//EN"
 "http://www.w3.org/TR/2001/REC-SVG-20010904/DTD/svg10.dtd">
<svg version="1.0" xmlns="http://www.w3.org/2000/svg"
 width="1024.000000pt" height="1024.000000pt" viewBox="0 0 1024.000000 1024.000000"
 preserveAspectRatio="xMidYMid meet">
<metadata>
Created by potrace 1.14, written by Peter Selinger 2001-2017
</metadata>
<g transform="translate(0.000000,1024.000000) scale(0.100000,-0.100000)"
fill="#000000" stroke="none">
<path d="M6709 9222 c-110 -113 -210 -238 -261 -325 -47 -78 -59 -148 -38
-212 15 -45 139 -178 244 -262 112 -90 156 -135 156 -160 0 -13 -39 -81 -87
-151 -183 -268 -218 -394 -230 -828 -7 -238 2 -333 39 -431 28 -77 104 -155
191 -198 139 -68 133 -68 932 -74 l720 -6 59 -24 c164 -66 225 -202 213 -476
-13 -294 -82 -517 -227 -740 -166 -254 -396 -457 -711 -628 l-86 -47 -26 -117
c-37 -161 -63 -295 -97 -484 -31 -181 -35 -169 55 -189 l47 -11 92 75 c438
354 794 810 1057 1351 213 440 322 865 321 1250 0 126 -4 165 -25 246 -14 53
-37 122 -52 152 -79 169 -223 287 -413 340 -74 20 -103 21 -782 27 -540 5
-715 10 -749 20 -56 17 -116 74 -130 125 -18 65 -24 232 -12 346 18 181 54
253 221 439 234 262 281 364 216 473 -28 49 -83 100 -260 244 -60 48 -123 105
-140 126 -28 35 -31 46 -32 115 -2 77 -2 77 -35 93 -76 37 -79 37 -170 -59z"/>
<path d="M5059 7579 c-22 -8 -37 -33 -79 -127 -85 -191 -170 -467 -170 -555 0
-13 7 -46 15 -74 34 -113 145 -178 470 -273 234 -69 247 -75 290 -120 28 -30
30 -36 33 -128 2 -53 -6 -230 -17 -392 -33 -472 -44 -843 -38 -1245 5 -345 22
-742 32 -792 4 -18 13 -22 48 -25 23 -2 61 -1 84 0 36 3 45 9 69 45 15 23 80
116 145 207 65 91 123 179 130 195 20 52 11 192 -35 535 -116 863 -133 1410
-59 1920 34 243 35 314 5 357 -34 48 -138 93 -362 158 -107 31 -223 70 -258
87 -78 39 -135 101 -163 179 l-22 59 -46 -1 c-25 0 -58 -5 -72 -10z"/>
<path d="M1500 7557 c-34 -12 -35 -15 -83 -162 -80 -248 -119 -410 -121 -500
-1 -69 3 -88 27 -138 47 -96 125 -138 292 -159 52 -7 95 -17 95 -23 0 -5 -11
-84 -25 -175 -50 -337 -93 -746 -120 -1135 -16 -235 -60 -1010 -71 -1262 l-7
-153 34 -2 c110 -5 110 -5 272 130 83 70 171 145 195 168 l44 40 -3 305 c-7
560 -4 1853 5 1972 l8 117 808 0 c551 0 825 -4 860 -11 66 -14 116 -57 131
-112 8 -30 10 -136 5 -362 -16 -839 -19 -1408 -7 -1611 12 -204 35 -491 47
-586 l7 -48 86 0 86 0 45 78 c24 42 82 133 128 200 45 68 90 138 99 155 27 50
21 175 -25 517 -86 629 -122 1044 -122 1385 0 133 3 158 34 283 56 222 69 306
63 412 -6 131 -33 198 -106 270 -62 62 -133 96 -262 126 -67 16 -171 18 -1039
24 -696 5 -977 10 -1008 19 -106 28 -176 86 -230 189 -32 59 -35 62 -70 61
-20 0 -53 -5 -72 -12z"/>
<path d="M4685 3476 l-150 -21 -3 -47 c-3 -53 -4 -53 101 -63 l67 -7 0 -754 0
-754 36 -15 c121 -50 397 -71 519 -40 195 51 350 216 406 432 28 108 28 297 0
406 -54 207 -179 330 -361 356 -121 16 -256 -22 -343 -99 l-37 -32 0 315 0
315 -25 16 c-29 19 -19 19 -210 -8z m541 -671 c139 -41 214 -190 214 -423 0
-249 -72 -417 -208 -484 -68 -33 -188 -32 -258 3 l-49 24 0 399 0 399 37 30
c43 35 127 66 179 67 19 0 58 -7 85 -15z"/>
<path d="M8183 3477 l-153 -21 0 -48 c0 -55 -2 -54 93 -63 l67 -7 0 -713 0
-713 -22 -6 c-13 -3 -39 -6 -58 -6 -73 -1 -80 -7 -80 -66 l0 -54 280 0 280 0
0 54 0 54 -52 6 c-29 4 -70 9 -90 12 l-38 6 0 778 0 778 -25 16 c-13 9 -30 15
-37 15 -7 -1 -82 -11 -165 -22z"/>
<path d="M1842 3283 l3 -57 78 -14 77 -14 0 -638 0 -639 -57 -11 c-113 -21
-103 -14 -103 -75 l0 -55 280 0 280 0 0 54 c0 60 1 59 -75 70 -22 4 -52 9 -67
12 l-28 6 0 294 0 294 355 0 355 0 0 -294 0 -295 -57 -11 c-113 -21 -103 -14
-103 -75 l0 -55 275 0 275 0 0 54 0 55 -57 11 c-32 6 -68 13 -80 16 l-23 4 0
639 0 639 78 14 77 14 0 54 0 55 -275 0 -275 0 -3 -53 c-3 -59 -8 -56 96 -72
l72 -12 0 -274 0 -274 -355 0 -355 0 0 274 0 274 85 13 85 12 0 59 0 58 -280
0 -281 0 3 -57z"/>
<path d="M3970 2969 c-100 -13 -213 -73 -288 -154 -109 -116 -162 -266 -162
-455 0 -134 22 -237 72 -340 52 -106 115 -170 218 -219 l75 -36 140 0 c132 1
144 2 222 32 84 32 170 84 180 109 3 7 -3 33 -12 57 l-17 44 -51 -28 c-161
-86 -349 -84 -454 6 -72 62 -133 208 -133 322 l0 53 344 0 344 0 8 78 c15 155
-22 317 -93 410 -71 94 -228 142 -393 121z m135 -142 c75 -43 115 -135 115
-269 l0 -78 -231 0 -232 0 6 73 c12 137 61 236 137 275 61 30 150 30 205 -1z"/>
<path d="M6355 2970 c-188 -25 -338 -135 -424 -313 -94 -192 -94 -442 0 -635
57 -118 175 -214 304 -248 69 -19 219 -18 286 2 69 21 154 64 199 102 l34 29
-19 42 c-10 23 -22 44 -26 47 -5 3 -25 -6 -46 -19 -92 -58 -217 -78 -311 -52
-163 46 -252 216 -252 480 0 217 62 359 182 419 81 41 192 32 249 -20 9 -8 27
-55 40 -105 l24 -89 67 0 68 0 0 43 c0 24 3 92 6 150 l7 106 -39 16 c-92 38
-246 58 -349 45z"/>
<path d="M7270 2955 c-119 -27 -250 -81 -317 -131 l-32 -25 21 -44 c12 -25 26
-45 30 -45 4 0 36 11 70 25 124 48 179 59 288 60 122 0 154 -13 191 -79 19
-33 24 -60 27 -138 l4 -98 -53 0 c-134 -1 -282 -35 -396 -90 -154 -76 -226
-200 -204 -356 12 -80 32 -124 80 -177 65 -71 124 -92 256 -92 106 0 113 1
186 36 41 20 92 51 112 69 l37 32 0 -35 c0 -41 16 -88 33 -99 21 -13 145 -9
218 8 l69 16 0 49 0 49 -60 0 -60 0 0 383 c0 417 -7 480 -55 563 -29 49 -77
85 -145 109 -64 23 -220 28 -300 10z m280 -775 l0 -190 -32 -20 c-95 -58 -234
-73 -300 -32 -104 65 -106 268 -2 347 63 48 178 83 282 84 l52 1 0 -190z"/>
</g>
</svg>
