<svg version="1.0" xmlns="http://www.w3.org/2000/svg" width="1365.333" height="1365.333" viewBox="0 0 1024 1024"><path d="M670.9 101.8c-11 11.3-21 23.8-26.1 32.5-4.7 7.8-5.9 14.8-3.8 21.2 1.5 4.5 13.9 17.8 24.4 26.2 11.2 9 15.6 13.5 15.6 16 0 1.3-3.9 8.1-8.7 15.1-18.3 26.8-21.8 39.4-23 82.8-.7 23.8.2 33.3 3.9 43.1 2.8 7.7 10.4 15.5 19.1 19.8 13.9 6.8 13.3 6.8 93.2 7.4l72 .6 5.9 2.4c16.4 6.6 22.5 20.2 21.3 47.6-1.3 29.4-8.2 51.7-22.7 74-16.6 25.4-39.6 45.7-71.1 62.8l-8.6 4.7-2.6 11.7c-3.7 16.1-6.3 29.5-9.7 48.4-3.1 18.1-3.5 16.9 5.5 18.9l4.7 1.1 9.2-7.5c43.8-35.4 79.4-81 105.7-135.1 21.3-44 32.2-86.5 32.1-125 0-12.6-.4-16.5-2.5-24.6-1.4-5.3-3.7-12.2-5.2-15.2-7.9-16.9-22.3-28.7-41.3-34-7.4-2-10.3-2.1-78.2-2.7-54-.5-71.5-1-74.9-2-5.6-1.7-11.6-7.4-13-12.5-1.8-6.5-2.4-23.2-1.2-34.6 1.8-18.1 5.4-25.3 22.1-43.9 23.4-26.2 28.1-36.4 21.6-47.3-2.8-4.9-8.3-10-26-24.4-6-4.8-12.3-10.5-14-12.6-2.8-3.5-3.1-4.6-3.2-11.5-.2-7.7-.2-7.7-3.5-9.3-7.6-3.7-7.9-3.7-17 5.9zM505.9 266.1c-2.2.8-3.7 3.3-7.9 12.7-8.5 19.1-17 46.7-17 55.5 0 1.3.7 4.6 1.5 7.4 3.4 11.3 14.5 17.8 47 27.3 23.4 6.9 24.7 7.5 29 12 2.8 3 3 3.6 3.3 12.8.2 5.3-.6 23-1.7 39.2-3.3 47.2-4.4 84.3-3.8 124.5.5 34.5 2.2 74.2 3.2 79.2.4 1.8 1.3 2.2 4.8 2.5 2.3.2 6.1.1 8.4 0 3.6-.3 4.5-.9 6.9-4.5 1.5-2.3 8-11.6 14.5-20.7s12.3-17.9 13-19.5c2-5.2 1.1-19.2-3.5-53.5-11.6-86.3-13.3-141-5.9-192 3.4-24.3 3.5-31.4.5-35.7-3.4-4.8-13.8-9.3-36.2-15.8-10.7-3.1-22.3-7-25.8-8.7-7.8-3.9-13.5-10.1-16.3-17.9l-2.2-5.9-4.6.1c-2.5 0-5.8.5-7.2 1zM150 268.3c-3.4 1.2-3.5 1.5-8.3 16.2-8 24.8-11.9 41-12.1 50-.1 6.9.3 8.8 2.7 13.8 4.7 9.6 12.5 13.8 29.2 15.9 5.2.7 9.5 1.7 9.5 2.3 0 .5-1.1 8.4-2.5 17.5-5 33.7-9.3 74.6-12 113.5-1.6 23.5-6 101-7.1 126.2l-.7 15.3 3.4.2c11 .5 11 .5 27.2-13 8.3-7 17.1-14.5 19.5-16.8l4.4-4-.3-30.5c-.7-56-.4-185.3.5-197.2l.8-11.7H285c55.1 0 82.5.4 86 1.1 6.6 1.4 11.6 5.7 13.1 11.2.8 3 1 13.6.5 36.2-1.6 83.9-1.9 140.8-.7 161.1 1.2 20.4 3.5 49.1 4.7 58.6l.7 4.8h17.2l4.5-7.8c2.4-4.2 8.2-13.3 12.8-20 4.5-6.8 9-13.8 9.9-15.5 2.7-5 2.1-17.5-2.5-51.7-8.6-62.9-12.2-104.4-12.2-138.5 0-13.3.3-15.8 3.4-28.3 5.6-22.2 6.9-30.6 6.3-41.2-.6-13.1-3.3-19.8-10.6-27-6.2-6.2-13.3-9.6-26.2-12.6-6.7-1.6-17.1-1.8-103.9-2.4-69.6-.5-97.7-1-100.8-1.9-10.6-2.8-17.6-8.6-23-18.9-3.2-5.9-3.5-6.2-7-6.1-2 0-5.3.5-7.2 1.2zM468.5 676.4l-15 2.1-.3 4.7c-.3 5.3-.4 5.3 10.1 6.3l6.7.7V841l3.6 1.5c12.1 5 39.7 7.1 51.9 4 19.5-5.1 35-21.6 40.6-43.2 2.8-10.8 2.8-29.7 0-40.6-5.4-20.7-17.9-33-36.1-35.6-12.1-1.6-25.6 2.2-34.3 9.9l-3.7 3.2v-63l-2.5-1.6c-2.9-1.9-1.9-1.9-21 .8zm54.1 67.1c13.9 4.1 21.4 19 21.4 42.3 0 24.9-7.2 41.7-20.8 48.4-6.8 3.3-18.8 3.2-25.8-.3l-4.9-2.4v-79.8l3.7-3c4.3-3.5 12.7-6.6 17.9-6.7 1.9 0 5.8.7 8.5 1.5zM818.3 676.3l-15.3 2.1v4.8c0 5.5-.2 5.4 9.3 6.3l6.7.7v142.6l-2.2.6c-1.3.3-3.9.6-5.8.6-7.3.1-8 .7-8 6.6v5.4h56v-10.8l-5.2-.6c-2.9-.4-7-.9-9-1.2l-3.8-.6V677.2l-2.5-1.6c-1.3-.9-3-1.5-3.7-1.5-.7.1-8.2 1.1-16.5 2.2zM184.2 695.7l.3 5.7 7.8 1.4 7.7 1.4V831.9l-5.7 1.1c-11.3 2.1-10.3 1.4-10.3 7.5v5.5h56v-5.4c0-6 .1-5.9-7.5-7-2.2-.4-5.2-.9-6.7-1.2l-2.8-.6V773h71v58.9l-5.7 1.1c-11.3 2.1-10.3 1.4-10.3 7.5v5.5h55v-10.9l-5.7-1.1c-3.2-.6-6.8-1.3-8-1.6l-2.3-.4V704.2l7.8-1.4 7.7-1.4v-10.9h-55l-.3 5.3c-.3 5.9-.8 5.6 9.6 7.2l7.2 1.2V759h-71v-54.8l8.5-1.3 8.5-1.2V690h-56.1l.3 5.7zM397 727.1c-10 1.3-21.3 7.3-28.8 15.4-10.9 11.6-16.2 26.6-16.2 45.5 0 13.4 2.2 23.7 7.2 34 5.2 10.6 11.5 17 21.8 21.9l7.5 3.6h14c13.2-.1 14.4-.2 22.2-3.2 8.4-3.2 17-8.4 18-10.9.3-.7-.3-3.3-1.2-5.7l-1.7-4.4-5.1 2.8c-16.1 8.6-34.9 8.4-45.4-.6-7.2-6.2-13.3-20.8-13.3-32.2V788h68.8l.8-7.8c1.5-15.5-2.2-31.7-9.3-41-7.1-9.4-22.8-14.2-39.3-12.1zm13.5 14.2c7.5 4.3 11.5 13.5 11.5 26.9v7.8h-46.3l.6-7.3c1.2-13.7 6.1-23.6 13.7-27.5 6.1-3 15-3 20.5.1zM635.5 727c-18.8 2.5-33.8 13.5-42.4 31.3-9.4 19.2-9.4 44.2 0 63.5 5.7 11.8 17.5 21.4 30.4 24.8 6.9 1.9 21.9 1.8 28.6-.2 6.9-2.1 15.4-6.4 19.9-10.2l3.4-2.9-1.9-4.2c-1-2.3-2.2-4.4-2.6-4.7-.5-.3-2.5.6-4.6 1.9-9.2 5.8-21.7 7.8-31.1 5.2-16.3-4.6-25.2-21.6-25.2-48 0-21.7 6.2-35.9 18.2-41.9 8.1-4.1 19.2-3.2 24.9 2 .9.8 2.7 5.5 4 10.5l2.4 8.9H673v-4.3c0-2.4.3-9.2.6-15l.7-10.6-3.9-1.6c-9.2-3.8-24.6-5.8-34.9-4.5zM727 728.5c-11.9 2.7-25 8.1-31.7 13.1l-3.2 2.5 2.1 4.4c1.2 2.5 2.6 4.5 3 4.5.4 0 3.6-1.1 7-2.5 12.4-4.8 17.9-5.9 28.8-6 12.2 0 15.4 1.3 19.1 7.9 1.9 3.3 2.4 6 2.7 13.8l.4 9.8h-5.3c-13.4.1-28.2 3.5-39.6 9-15.4 7.6-22.6 20-20.4 35.6 1.2 8 3.2 12.4 8 17.7 6.5 7.1 12.4 9.2 25.6 9.2 10.6 0 11.3-.1 18.6-3.6 4.1-2 9.2-5.1 11.2-6.9l3.7-3.2v3.5c0 4.1 1.6 8.8 3.3 9.9 2.1 1.3 14.5.9 21.8-.8l6.9-1.6V835h-12v-38.3c0-41.7-.7-48-5.5-56.3-2.9-4.9-7.7-8.5-14.5-10.9-6.4-2.3-22-2.8-30-1zm28 77.5v19l-3.2 2c-9.5 5.8-23.4 7.3-30 3.2-10.4-6.5-10.6-26.8-.2-34.7 6.3-4.8 17.8-8.3 28.2-8.4l5.2-.1v19z"/></svg>