<?xml version="1.0"?>
<svg xmlns="http://www.w3.org/2000/svg" xmlns:xlink="http://www.w3.org/1999/xlink">
<defs>
<symbol id="couple" viewBox="0 0 416 335.949">
<path d="M127.733 0c-36.161-.006-65.17 29.922-67.555 67.021h-.032c-7.246 6.58-9.807 17.922-7.03 28.402v.16c1.729 6.525 5.007 13.416 9.56 19.248 2.28 2.914 4.887 5.592 8.25 7.563 2.159 1.264 5.188 1.088 8.03 1.279 1.717 7.305 3.954 14.588 9.093 20.902 2.286 2.805 5.025 5.266 7.686 7.781v28.369L43.647 202.44c-11.597 4.809-20.148 15.004-22.78 27.277L.184 326.078c-1.076 4.98 2.715 9.68 7.812 9.686 133.437.416 267.076 0 399.989 0 5.14.008 8.956-4.764 7.812-9.779l-23.998-103.951a8.001 8.001 0 0 0-5.061-5.654l-58.618-21.996-.122-18.496a8.085 8.085 0 0 0 0-.881c2.739-2.189 5.309-4.607 7.749-7.154h40.207c4.408 0 7.996-3.531 8.03-7.936v-63.99c0-44.064-36.008-79.951-80.084-79.957-44.077-.006-79.915 35.893-79.93 79.957v63.99a7.996 7.996 0 0 0 8.03 7.936h32.179c2.443 2.553 5.007 4.963 7.749 7.154-.022.24-.032.48-.032.752l-.242 18.686-37.027 13.904-74.898-29.965v-26.371a7.45 7.45 0 0 0 0-.367c1.935-1.988 3.96-3.736 5.78-5.996 6.68-8.289 12.277-18.084 13.625-28.811 11.059-.545 20.575-9.754 23.685-21.465 2.818-10.746-.011-22.379-7.687-28.871C192.508 29.667 163.68.05 127.702.044z" fill="#484666"/><path d="M127.733 15.936c25.384.004 46.627 19.555 51.026 45.836-4.831.688-9.33 3.01-13.061 6.436-1.034-.641-2.31-1.504-3.72-2.871-3.06-2.975-6.168-7.113-9.56-10.529l-7.093-7.064a8 8 0 0 0-6.593-2.377 8.001 8.001 0 0 0-4.716 2.377l-7.093 7.092c-.181.176-1.3.623-4.97.24-3.67-.416-8.47-1.625-14.061-1.625a8.003 8.003 0 0 0-4.934 1.625l-17.5 13.936c-3-1.965-5.89-4.275-8.967-5.721 3.87-27.004 25.4-47.309 51.244-47.305z" fill="#dc9a5c"/><path d="M303.932 31.87c35.434.004 64.023 28.605 64.024 64.021v55.961h-20.373c2.654-5.035 4.438-10.328 4.438-15.934v-31.996a7.999 7.999 0 0 0-7.968-8.031h-3.496c-5.901 0-11.64-2.326-15.811-6.5l-7.093-7.186a7.998 7.998 0 0 0-6.624-2.25 7.986 7.986 0 0 0-4.716 2.219l-7.093 7.217a22.126 22.126 0 0 1-15.685 6.5h-27.528a7.998 7.998 0 0 0-8.03 7.969v32.057c0 5.605 1.747 10.898 4.408 15.936h-12.311V95.892c.01-35.416 28.433-64.027 63.868-64.021h-.01z" fill="#fabd6b"/><path d="m139.669 64.707 1.409 1.408c2.23 2.244 5.666 6.629 9.81 10.654 4.143 4.027 9.275 8.5 16.999 8.5h.242a8.002 8.002 0 0 0 6.499-3.314c2.364-3.367 4.922-4.275 7.03-4.221h.032a7.993 7.993 0 0 0 4.31 2.533c1.652 2.449 2.637 6.236 1.374 10.969-1.947 7.344-7.412 10.332-10.624 9.467-.302-.016-4.547.16-4.626.16-.04.014-1.082.367-1.53.607-.423.24-.84.48-1.155.721-1.258.928-1.784 1.693-2.25 2.34-.93 1.297-1.438 2.395-1.904 3.436-.484 1.057-.75 1.982-1.064 2.938-.302.961-.623 1.439-.81 3.314-.63 6.203-4.698 14.449-10.28 21.373-5.581 6.924-12.748 12.572-16.78 14.402-4.951 2.25-12.426 2.34-16.997.16-6.194-2.998-13.565-9.031-18.905-15.592-5.34-6.561-8.374-13.879-8.374-17.246v-1.748a8.001 8.001 0 0 0-11.811-7.094c-.423.24-.804.416-.937.48h-.121c.302 0 .605.16-.242-.367-.828-.48-2.225-1.729-3.658-3.561-2.86-3.664-5.617-9.404-6.718-13.563-1.318-4.977-.181-8.961 1.627-11.373a8 8 0 0 0 3.47-2.279c2.166-.305 5.08.545 7.657 4.189a8.002 8.002 0 0 0 11.467 1.659l17.467-13.936c2.576.305 5.666.816 9.905 1.279 5.254.607 12.634.656 18.092-4.844zm172.293 34.497 1.56 1.535c5.95 5.943 14.192 8.102 22.435 9.217v25.965c0 3.338-3.023 10.561-8.405 17.121-5.381 6.563-12.736 12.584-18.998 15.592-4.716 2.268-12.406 2.268-17.123 0-6.262-3.012-13.645-9.029-19.03-15.592-5.386-6.563-8.373-13.783-8.373-17.121v-24.09h19.498c10.136 0 19.86-3.932 27.028-11.094zm-200.29 64.894c.242.16.484.305.72.416 9.729 4.717 21.079 4.316 30.59 0a5.85 5.85 0 0 1 .72-.416v15.654l-4.5 3.059c-7.05 4.699-16.157 4.928-23.496.688l-4.033-2.346zM287.87 184.19c7.828 2.842 16.352 2.83 24.184 0l.122 11.686-3.997 3.217c-4.934 4.021-11.87 3.961-16.748-.16l-3.72-3.156z" fill="#ffd3b3"/><path d="m152.886 192.846 59.587 23.84a8.004 8.004 0 0 0-4.311 5.344l-22.528 97.734H71.989V279.77a8 8 0 0 0-8.842-8.029 8 8 0 0 0-7.093 8.029v39.994H17.903l18.685-86.766c1.53-7.148 6.334-13.01 13.092-15.811l53.744-22.34 4.372 2.496a38.14 38.14 0 0 0 40.245-1.313z" fill="#93cfef"/><path d="m321.555 208.905 55.619 20.904 20.779 89.986h-29.996V279.77a7.999 7.999 0 0 0-8.875-8.029 7.998 7.998 0 0 0-7.061 8.029v40.025H247.969v-31.996a8 8 0 0 0-8.155-8.154 8 8 0 0 0-7.781 8.154v31.996h-29.996l20.779-89.986 55.619-20.779 2.715 2.25c10.684 8.951 26.38 9.02 37.183.24z" fill="#36d7b7"/><path d="m311.949 99.202-1.405 1.535c-.748.752-1.636 1.297-2.437 1.969 5.66 4.35 12.736 6.279 19.904 7.25v25.965c0 3.338-3.023 10.559-8.405 17.121-5.381 6.563-12.736 12.582-18.998 15.592-1.333.641-2.92 1.072-4.593 1.344 4.249.703 9.146.287 12.53-1.344 6.262-3.01 13.616-9.029 18.998-15.592 5.382-6.563 8.405-13.783 8.405-17.121v-25.965c-8.243-1.119-16.485-3.273-22.435-9.217zm-24.09 84.986-.032 1.748c2.746.336 5.5.336 8.249 0-2.776-.305-5.548-.816-8.217-1.781zm24.185 0c-2.528.912-5.124 1.424-7.75 1.748l.095 9.936-4 3.219a13.254 13.254 0 0 1-4.312 2.313c4.079 1.248 8.577.545 12.092-2.313l4-3.219zM139.657 64.661l-1.375 1.469c-.688.693-1.478 1.067-2.22 1.594 2.188 2.402 4.807 5.595 8.314 9 4.142 4.026 9.276 8.502 17 8.5h.25a7.993 7.993 0 0 0 2.75-.5 20.053 20.053 0 0 1-7.344-3c-2.33-1.469-4.36-3.255-6.156-5-4.146-4.026-7.581-8.413-9.813-10.656zm-29.375 5.031-.844.656c1.429.188 2.43.357 4.25.563 1.787.204 3.906.162 6.03 0-3.935-.446-6.982-.93-9.436-1.219zm71.375 8c-1.331 0-2.817.608-4.344 1.719a8.03 8.03 0 0 0 2.188.844c1.65 2.45 2.639 6.238 1.375 10.969-1.947 7.344-7.414 10.333-10.625 9.469-.302-.016-4.546.156-4.625.156-.04.011-1.084.354-1.531.594-.423.24-.842.479-1.156.719-1.258.928-1.784 1.696-2.25 2.344-.931 1.296-1.441 2.397-1.906 3.438-.484 1.056-.748 1.982-1.063 2.938-.302.96-.625 1.44-.813 3.313-.63 6.205-4.7 14.452-10.281 21.375s-12.75 12.576-16.781 14.406c-1.64.748-3.567 1.165-5.563 1.438.04.005.084-.005.125 0 1.7.23 3.49.225 5.25.094.515-.045 1.025-.08 1.53-.156 1.836-.26 3.632-.665 5.157-1.375 2.016-.915 4.819-2.806 7.813-5.313 2.994-2.507 6.178-5.632 8.969-9.094 5.582-6.923 9.652-15.172 10.28-21.375.189-1.88.51-2.357.814-3.313.314-.96.579-1.886 1.063-2.938.466-1.04.975-2.138 1.906-3.438.466-.656.992-1.408 2.25-2.344.314-.24.733-.479 1.156-.719.447-.24 1.49-.612 1.53-.625.08 0 4.324-.172 4.626-.156 1.606.432 3.77-.099 5.78-1.656 2.012-1.557 3.87-4.141 4.845-7.813.629-2.354.696-4.474.406-6.313-.002-.011.002-.02 0-.031A11.482 11.482 0 0 0 186 80.255a7.997 7.997 0 0 1-3.75-1.969 8.082 8.082 0 0 1-.563-.563h-.031zm-107.97.094a8.03 8.03 0 0 1-1.78 1.469c.985.656 1.99 1.279 2.938 2.625a8 8 0 0 0 9.688 2.719 8.003 8.003 0 0 1-3.188-2.625c-2.577-3.647-5.492-4.492-7.657-4.188zm4.189 29.625c.335.272.846.918 1.094 1.063.847.48.52.311.219.375h.125c.133 0 .514-.26.938-.5a7.77 7.77 0 0 1 .563-.281 7.992 7.992 0 0 0-2.94-.657zm33.784 56.687v2.938c3.904.881 7.9.881 11.842.432-3.8-.416-7.587-1.217-11.124-2.938a5.14 5.14 0 0 0-.718-.432zm32.028 0c-.236.16-.477.32-.72.432-2.317 1.057-4.731 1.836-7.217 2.406v12.811l-4.5 3.063c-2.611 1.738-5.548 2.641-8.53 3.154 5.63 1.072 11.54.16 16.468-3.154l4.499-3.063z" fill="#c89f8b"/><path d="m152.874 192.842-3.343 2.188 54.119 21.652a7.998 7.998 0 0 0-4.312 5.344l-22.53 97.734h8.813l22.529-97.734a7.998 7.998 0 0 1 4.312-5.344zm-49.463 2-5.124 2.125.656.367c7.306 4.217 15.596 5.514 23.654 4.531-5.117-.576-10.183-1.861-14.811-4.531zm-48.432 76.864a7.176 7.176 0 0 0-.656 0 8 8 0 0 0-7.093 8.031v39.994h8.812v-39.994a8.004 8.004 0 0 1 3.562-6.717 8.008 8.008 0 0 0-4.624-1.344z" fill="#64a5da"/><path d="m321.543 208.903-3.218 2.623c-.445.367-.945.607-1.406.943l46.12 17.34 20.779 89.986h14.123l-20.78-89.986zm-43.12.16-9.53 3.563c7.042 5 15.765 6.496 23.872 4.5-4.165-1.039-8.171-2.92-11.624-5.811zm67.242 62.678a7.185 7.185 0 0 0-.72 0 8 8 0 0 0-7.061 8.031v40.025h14.123v-40.025a7.998 7.998 0 0 1 .906-3.748 8.004 8.004 0 0 0-7.25-4.313zm-119.987 7.937a7.998 7.998 0 0 0-7.78 8.154v31.996h14.123v-31.996a8.01 8.01 0 0 1 .906-3.844 8 8 0 0 0-7.25-4.31z" fill="#37b89e"/><path d="M303.919 31.868c-1.326 0-2.567.32-3.874.4 33.569 2.053 60.118 29.537 60.118 63.615v55.961h7.78V95.883c-.001-35.404-28.573-63.998-63.993-64.021zm.157 48.021a7.874 7.874 0 0 0-.813 0 8.003 8.003 0 0 0-4.718 2.217l-7.093 7.217a22.126 22.126 0 0 1-15.686 6.5h7.78a22.118 22.118 0 0 0 15.686-6.5l7.093-7.217a7.938 7.938 0 0 1 1.78-1.279 8.003 8.003 0 0 0-4.03-.992zm-55.837 15.998a7.998 7.998 0 0 0-8.03 7.969v32.059c0 5.605 1.745 10.898 4.406 15.934h7.78c-2.66-5.037-4.406-10.33-4.406-15.934v-31.996a7.999 7.999 0 0 1 7.968-8.031h.062-7.78z" fill="#e0a45c"/><path d="M127.72 15.932c-1.796-.002-3.5.305-5.25.496 22.868 2.625 41.425 20.977 45.497 45.305-2.49.352-4.872 1.168-7.124 2.313.364.385.763.896 1.125 1.248a21.212 21.212 0 0 0 3.718 2.875c3.732-3.426 8.23-5.74 13.06-6.438-4.398-26.279-25.64-45.834-51.024-45.836zm.22 29.402a7.995 7.995 0 0 0-4.718 2.375l-6.531 6.531c1.893.305 3.723.641 5.249.816 3.67.385 4.787 0 4.968-.256L134 47.706c.082-.076.165-.152.25-.225a8.003 8.003 0 0 0-6.312-2.125zm-30.841 8.094a8 8 0 0 0-4.937 1.625L79.445 65.176c1.996 1.264 3.995 2.498 5.999 3.811l17.498-13.934a8.014 8.014 0 0 1 1.719-.992c-2.311-.336-4.834-.623-7.562-.623z" fill="#bc8756"/>
</symbol>
<symbol id="candle" viewBox="0 0 506.66 506.66">
<path d="M253.163.016a8 8 0 0 0-7 12.103c.587.981.864 3.977-1.27 9.521-2.13 5.544-6.221 12.638-10.771 20.021-4.549 7.383-9.558 15.105-13.563 22.687-4.004 7.581-7.292 14.942-7.229 22.979.128 16.992 14.009 31.383 32 34.646v23.791l-57.938 14.48a8 8 0 0 0-6.062 7.749v205.646l-88.042.352a8 8 0 0 0-7.959 8.043v.02c.395 54.647 40.976 103.091 101.646 124.167a8.003 8.003 0 0 0 2.625.438h127.209c.886 0 1.766-.148 2.604-.438 61.058-21.112 101.83-69.915 101.917-124.875a8.001 8.001 0 0 0-7.981-8.021H325.33V135.992a8 8 0 0 0-8.23-7.979 7.995 7.995 0 0 0-1.709.214l-54.062 13.52v-20.145c7.717-1.982 14.234-6.566 19.084-12.105 6.501-7.426 10.49-16.546 12.166-25.333 3.37-17.663-5.932-36.787-14.813-52.708-8.639-15.488-17.379-26.912-17.875-27.563l-.501-.768a8.001 8.001 0 0 0-6.228-3.126l.001.017z" fill="#3b322e"/><path d="M309.33 146.266v227.062h-112V174.244l26.667-6.667v53.605a8.001 8.001 0 1 0 16-.001v-57.604l69.333-17.333v.022z" fill="#efda7f"/><path d="M263.872 202.725a8 8 0 0 0-7.875 8.104v31.708a8.001 8.001 0 1 0 16-.001v-31.708a8 8 0 0 0-7.895-8.105c-.077 0-.154 0-.23.002z" fill="#3b322e"/><path d="M258.143 30.536c2.519 3.89 2.923 3.848 5.646 8.73 8.238 14.769 14.786 32.987 13.083 41.917-1.15 6.028-4.235 12.919-8.5 17.791-4.266 4.872-9.197 7.709-15.333 7.709-13.431 0-23.638-10.735-23.708-19.479 0-2.844 1.881-8.719 5.395-15.375 3.516-6.655 8.351-14.192 13.021-21.771 4.022-6.528 7.544-13.036 10.396-19.522z" fill="#f29f4a"/><g fill="#95ce8f"><path d="M253.371 389.35c.132.003.263.003.395 0h150.063c-.811 9.135-2.966 18.051-6.229 26.667H108.995c-3.177-8.415-5.285-17.128-6.125-26.042l150.5-.629.001.004zM116.642 432.016h273.313c-14.823 25.425-40.626 46.599-74.875 58.667H191.309c-34.159-12.099-59.89-33.261-74.667-58.667z"/></g><path d="M258.143 30.536c-1.937 4.404-4.27 8.825-6.771 13.25 7.074 13.821 12.37 29.34 10.833 37.396-1.15 6.028-4.235 12.919-8.5 17.791-2.577 2.943-5.442 5.031-8.625 6.313 2.483.832 5.124 1.396 7.958 1.396 6.137 0 11.068-2.837 15.333-7.709 4.266-4.872 7.35-11.763 8.5-17.791 1.703-8.93-4.845-27.148-13.083-41.917-2.723-4.88-3.126-4.838-5.645-8.729z" fill="#c27f3b"/><g fill="#bfae66"><path d="m309.33 146.245-14.667 3.666v223.416h14.667V146.245zM223.997 167.579l-11.333 2.874v50.23c-.331 6.365 8.276 6.365 12 3.792a8.099 8.099 0 0 1-.661-3.292l-.006-53.604z"/></g><g fill="#77a572"><path d="M389.163 389.35c-.811 9.135-2.966 18.051-6.229 26.667h14.667c3.263-8.616 5.419-17.531 6.229-26.667h-14.667zM375.288 432.016c-14.823 25.425-40.627 46.599-74.875 58.667h14.667c34.246-12.068 60.051-33.242 74.875-58.667h-14.667z"/></g>
</symbol>
<symbol id="torah-235339" viewBox="0 0 512 512">
<path d="M465.205 442.985v51.806c0 9.504-7.704 17.208-17.208 17.208s-17.208-7.705-17.208-17.208v-51.806h34.416m-384.006 0v51.806c0 9.504-7.705 17.208-17.208 17.208-9.492 0-17.196-7.705-17.196-17.208v-51.806h34.404z" fill="#f95428"/><path fill="#e6e6e6" d="M443.279 120.157v271.698H68.709V120.157h355.84z" style="border-width:3px;border-color:#000"/><path d="M400.9 111.414h94.193v289.185H400.9zm-383.994 0h94.181v289.185H16.906z" fill="#ffe998"/><path fill="#ffd744" d="M16.906 120.157H46.6v271.699H16.906z"/><path fill="#e6e6e6" d="M406.536 120.157v271.698h-24.14V120.157h22.933z"/><path fill="#ffd744" d="M400.9 120.157h29.694v271.699H400.9z"/><path d="M81.199 17.208v51.818H46.795V17.208C46.795 7.705 54.499 0 63.991 0c9.504 0 17.208 7.705 17.208 17.208z" fill="#f95428"/><path d="M68.824.7a17.21 17.21 0 0 0-4.833-.7c-9.492 0-17.196 7.705-17.196 17.208v51.818h9.661V17.208C56.455 9.384 61.682 2.791 68.824.7z" fill="#e54728"/><path d="M465.205 17.208v51.818h-34.417V17.208C430.789 7.705 438.493 0 447.997 0s17.208 7.705 17.208 17.208z" fill="#f95428"/><path d="M452.818.7a17.21 17.21 0 0 0-4.833-.7c-9.492 0-17.196 7.705-17.196 17.208v51.818h9.661V17.208C440.449 9.384 445.676 2.791 452.818.7zM68.824 511.3c-1.535.449-3.153.7-4.833.7-9.492 0-17.196-7.705-17.196-17.208v-51.818h9.661v51.818c-.001 7.824 5.226 14.417 12.368 16.508zm383.994 0c-1.535.449-3.153.7-4.833.7-9.492 0-17.196-7.705-17.196-17.208v-51.818h9.661v51.818c-.001 7.824 5.226 14.417 12.368 16.508z" fill="#e54728"/><path d="M509.585 67.819v52.338H386.409V67.819h78.796zm-384.006 0v52.338H2.415V67.819h78.784z" fill="#f7b239"/><path d="M23.741 67.819v52.338H2.415V67.819h13.641zm389.629 0v52.338h-26.961V67.819h17.246z" fill="#e09b2d"/><path d="M125.579 391.855v52.338H2.415v-52.338h108.672zm384.006 0v52.338H386.409v-52.338h108.685z" fill="#f7b239"/><path d="M23.741 391.855v52.338H2.415v-52.338h18.817zm389.629 0v52.338h-26.961v-52.338h23.789z" fill="#e09b2d"/><path d="M367.987 156.722a3.438 4.682 0 0 0-3.438-4.682H282.03a3.438 4.682 0 0 0 0 9.364h82.518a3.438 4.682 0 0 0 3.438-4.682zM367.987 213.574a3.438 4.682 0 0 0-3.438-4.682H282.03a3.438 4.682 0 0 0 0 9.364h82.518a3.438 4.682 0 0 0 3.438-4.682zM364.55 189.83h-82.517a3.438 4.682 0 0 1 0-9.364h82.517a3.438 4.682 0 0 1 0 9.364zM367.987 270.426a3.438 4.682 0 0 0-3.438-4.682H282.03a3.438 4.682 0 0 0 0 9.364h82.518a3.438 4.682 0 0 0 3.438-4.682zM366.256 246.682h-41.54a1.73 4.682 0 0 1 0-9.364h41.54a1.73 4.682 0 0 1 0 9.364zM367.986 327.278a2.166 4.682 0 0 0-2.166-4.682h-51.986a2.166 4.682 0 0 0 0 9.363h51.986a2.166 4.682 0 0 0 2.166-4.681zM367.986 355.704a3.438 4.682 0 0 0-3.439-4.682H282.03a3.438 4.682 0 0 0 0 9.363h82.517a3.438 4.682 0 0 0 3.439-4.681zM364.55 303.534h-82.517a3.438 4.682 0 0 1 0-9.364h82.517a3.438 4.682 0 0 1 0 9.364zM229.363 156.722a3.438 4.682 0 0 0-3.439-4.682h-82.517a3.438 4.682 0 0 0 0 9.364h82.517a3.438 4.682 0 0 0 3.439-4.682zM229.363 213.574a3.438 4.682 0 0 0-3.439-4.682h-82.517a3.438 4.682 0 0 0 0 9.364h82.517a3.438 4.682 0 0 0 3.439-4.682zM227.8 189.83h-37.525a1.564 4.682 0 0 1 0-9.364H227.8a1.564 4.682 0 0 1 0 9.364zM229.363 270.426a3.438 4.682 0 0 0-3.439-4.682h-82.517a3.438 4.682 0 0 0 0 9.364h82.517a3.438 4.682 0 0 0 3.439-4.682zM225.926 246.682h-82.518a3.438 4.682 0 0 1 0-9.364h82.518a3.438 4.682 0 0 1 0 9.364zM229.361 327.278a3.438 4.682 0 0 0-3.438-4.682h-82.518a3.438 4.682 0 0 0 0 9.363h82.518a3.438 4.682 0 0 0 3.438-4.681zM229.361 355.704a2.198 4.682 0 0 0-2.198-4.682h-52.758a2.198 4.682 0 0 0 0 9.363h52.758a2.198 4.682 0 0 0 2.198-4.681zM225.926 303.534h-82.518a3.438 4.682 0 0 1 0-9.364h82.518a3.438 4.682 0 0 1 0 9.364z" fill="#666"/>
</symbol>
<symbol id="book" viewBox="0 0 460 395">
<path d="M450 350H10c-5.523 0-10-4.477-10-10V40c0-5.523 4.477-10 10-10h440c5.523 0 10 4.477 10 10v300c0 5.523-4.477 10-10 10z" fill="#798751"/><path d="M250 350h-40V30h40z" fill="#283215"/><path d="M440 270v50c0 5.523-4.477 10-10 10H260c-16.569 0-30-13.431-30-30 0 16.569-13.431 30-30 30H30c-5.523 0-10-4.477-10-10v-50h180c16.569 0 30 13.431 30 30 0-16.568 13.431-30 30-30z" fill="#aca082"/><path d="M440 10v290H20V10c0-5.523 4.477-10 10-10h170c16.569 0 30 13.431 30 30 0-16.569 13.431-30 30-30h170c5.523 0 10 4.477 10 10z" fill="#d5c9ab"/><path d="M415 40H295a5 5 0 0 1 0-10h120a5 5 0 0 1 0 10zm5 15a5 5 0 0 0-5-5H295a5 5 0 0 0 0 10h120a5 5 0 0 0 5-5zm0 20a5 5 0 0 0-5-5H255a5 5 0 0 0 0 10h160a5 5 0 0 0 5-5zm-20 40a5 5 0 0 0-5-5H255a5 5 0 0 0 0 10h140a5 5 0 0 0 5-5zm20 20a5 5 0 0 0-5-5H255a5 5 0 0 0 0 10h160a5 5 0 0 0 5-5zm-10 20a5 5 0 0 0-5-5H255a5 5 0 0 0 0 10h150a5 5 0 0 0 5-5zm10 20a5 5 0 0 0-5-5H255a5 5 0 0 0 0 10h160a5 5 0 0 0 5-5zm-20 20a5 5 0 0 0-5-5H255a5 5 0 0 0 0 10h140a5 5 0 0 0 5-5zm20 20a5 5 0 0 0-5-5H255a5 5 0 0 0 0 10h160a5 5 0 0 0 5-5zm-10 20a5 5 0 0 0-5-5H255a5 5 0 0 0 0 10h150a5 5 0 0 0 5-5zM280 55V35a5 5 0 0 0-5-5h-20a5 5 0 0 0-5 5v20a5 5 0 0 0 5 5h20a5 5 0 0 0 5-5zm135 215h-10a5 5 0 0 0 0 10h10a5 5 0 0 0 0-10z" fill="#b2aa92"/><path d="M310 320c-33.137 0-60-2.239-60-5s26.863-5 60-5 60 2.239 60 5-26.863 5-60 5z" fill="#958b71"/><path d="m340 395-30-10-30 10v-76a4 4 0 0 1 4-4h52a4 4 0 0 1 4 4z" fill="#b04230"/><path d="M230 300c0 16.569-13.431 30-30 30H30c-5.523 0-10-4.477-10-10v-50h180c16.569 0 30 13.431 30 30z" fill="#d8c8a7"/><path d="M230 30v270H20V10c0-5.523 4.477-10 10-10h170c16.569 0 30 13.431 30 30z" fill="#f2e3c0"/><path d="M205 40H85a5 5 0 0 1 0-10h120a5 5 0 0 1 0 10zm5 15a5 5 0 0 0-5-5H85a5 5 0 0 0 0 10h120a5 5 0 0 0 5-5zm0 20a5 5 0 0 0-5-5H45a5 5 0 0 0 0 10h160a5 5 0 0 0 5-5zm-20 20a5 5 0 0 0-5-5H45a5 5 0 0 0 0 10h140a5 5 0 0 0 5-5zm20 20a5 5 0 0 0-5-5H45a5 5 0 0 0 0 10h160a5 5 0 0 0 5-5zm-10 20a5 5 0 0 0-5-5H45a5 5 0 0 0 0 10h150a5 5 0 0 0 5-5zm10 40a5 5 0 0 0-5-5H45a5 5 0 0 0 0 10h160a5 5 0 0 0 5-5zm-20 20a5 5 0 0 0-5-5H45a5 5 0 0 0 0 10h140a5 5 0 0 0 5-5zm20 20a5 5 0 0 0-5-5H45a5 5 0 0 0 0 10h160a5 5 0 0 0 5-5zm-10 20a5 5 0 0 0-5-5H45a5 5 0 0 0 0 10h150a5 5 0 0 0 5-5zM70 55V35a5 5 0 0 0-5-5H45a5 5 0 0 0-5 5v20a5 5 0 0 0 5 5h20a5 5 0 0 0 5-5zM55 270H45a5 5 0 0 0 0 10h10a5 5 0 0 0 0-10z" fill="#cfc4a6"/>
</symbol>
<symbol id="cloud-download" viewBox="0 0 48 48">
<path d="M45.81 19.56a9.5 9.5 0 0 0-6.26-3.86v-.88a12.72 12.72 0 0 0-25.29-2 13.34 13.34 0 0 0-2.22-.18C5.42 12.67 0 17.59 0 23.64s3.64 10.24 9.36 10.75h29.09c4.75-.2 9.55-3.29 9.55-8.78a9.52 9.52 0 0 0-2.19-6.05Z" fill="#d5f6f5"/><path d="M31.52 38.62a2 2 0 0 0-2.82-.22L26 40.69V22.92a2 2 0 0 0-4 0v17.75l-2.7-2.31a2 2 0 1 0-2.61 3l6 5.13h.06l.12.09.22.13.14.06.25.08h.12a2 2 0 0 0 .4.15 2 2 0 0 0 .39 0h.11l.27-.09h.06a2 2 0 0 0 .42-.26l6-5.09a2 2 0 0 0 .27-2.94Z" fill="#64c37d"/>
</symbol>
<symbol id="calendar" viewBox="0 0 470 470">
<path d="M15 137.3V395h440V137.3H15zm73 212.5H58a7.5 7.5 0 0 1 0-15h30a7.5 7.5 0 0 1 0 15zm0-54H58a7.5 7.5 0 0 1 0-15h30a7.5 7.5 0 0 1 0 15zm0-54H58a7.5 7.5 0 0 1 0-15h30a7.5 7.5 0 0 1 0 15zm0-54H58a7.5 7.5 0 0 1 0-15h30a7.5 7.5 0 0 1 0 15zm81 162h-30a7.5 7.5 0 0 1 0-15h30a7.5 7.5 0 0 1 0 15zm0-54h-30a7.5 7.5 0 0 1 0-15h30a7.5 7.5 0 0 1 0 15zm0-54h-30a7.5 7.5 0 0 1 0-15h30a7.5 7.5 0 0 1 0 15zm0-54h-30a7.5 7.5 0 0 1 0-15h30a7.5 7.5 0 0 1 0 15zm81 162h-30a7.5 7.5 0 0 1 0-15h30c4.143 0 7.5 3.358 7.5 7.5s-3.357 7.5-7.5 7.5zm0-54h-30a7.5 7.5 0 0 1 0-15h30c4.143 0 7.5 3.358 7.5 7.5s-3.357 7.5-7.5 7.5zm0-54h-30a7.5 7.5 0 0 1 0-15h30c4.143 0 7.5 3.358 7.5 7.5s-3.357 7.5-7.5 7.5zm0-54h-30a7.5 7.5 0 0 1 0-15h30c4.143 0 7.5 3.358 7.5 7.5s-3.357 7.5-7.5 7.5zm81 162h-30c-4.143 0-7.5-3.358-7.5-7.5s3.357-7.5 7.5-7.5h30c4.143 0 7.5 3.358 7.5 7.5s-3.357 7.5-7.5 7.5zm0-54h-30c-4.143 0-7.5-3.358-7.5-7.5s3.357-7.5 7.5-7.5h30c4.143 0 7.5 3.358 7.5 7.5s-3.357 7.5-7.5 7.5zm0-54h-30c-4.143 0-7.5-3.358-7.5-7.5s3.357-7.5 7.5-7.5h30c4.143 0 7.5 3.358 7.5 7.5s-3.357 7.5-7.5 7.5zm0-54h-30c-4.143 0-7.5-3.358-7.5-7.5s3.357-7.5 7.5-7.5h30c4.143 0 7.5 3.358 7.5 7.5s-3.357 7.5-7.5 7.5zm81 162h-30c-4.143 0-7.5-3.358-7.5-7.5s3.357-7.5 7.5-7.5h30c4.143 0 7.5 3.358 7.5 7.5s-3.357 7.5-7.5 7.5zm0-54h-30c-4.143 0-7.5-3.358-7.5-7.5s3.357-7.5 7.5-7.5h30c4.143 0 7.5 3.358 7.5 7.5s-3.357 7.5-7.5 7.5zm0-54h-30c-4.143 0-7.5-3.358-7.5-7.5s3.357-7.5 7.5-7.5h30c4.143 0 7.5 3.358 7.5 7.5s-3.357 7.5-7.5 7.5zm0-54h-30c-4.143 0-7.5-3.358-7.5-7.5s3.357-7.5 7.5-7.5h30c4.143 0 7.5 3.358 7.5 7.5s-3.357 7.5-7.5 7.5z" fill="#fff"/><path d="M407.5 22.5v30c0 4.136 3.364 7.5 7.5 7.5s7.5-3.364 7.5-7.5v-30c0-4.136-3.364-7.5-7.5-7.5s-7.5 3.364-7.5 7.5zM287.5 22.5v30c0 4.136 3.364 7.5 7.5 7.5s7.5-3.364 7.5-7.5v-30c0-4.136-3.364-7.5-7.5-7.5s-7.5 3.364-7.5 7.5zM167.5 22.5v30c0 4.136 3.364 7.5 7.5 7.5s7.5-3.364 7.5-7.5v-30c0-4.136-3.364-7.5-7.5-7.5s-7.5 3.364-7.5 7.5zM47.5 22.5v30c0 4.136 3.364 7.5 7.5 7.5s7.5-3.364 7.5-7.5v-30c0-4.136-3.364-7.5-7.5-7.5s-7.5 3.364-7.5 7.5z" fill="#98d9d5"/><path d="M15 45v77.3h440V45h-17.5v7.5c0 12.407-10.094 22.5-22.5 22.5s-22.5-10.093-22.5-22.5V45h-75v7.5c0 12.407-10.094 22.5-22.5 22.5s-22.5-10.093-22.5-22.5V45h-75v7.5c0 12.407-10.093 22.5-22.5 22.5s-22.5-10.093-22.5-22.5V45h-75v7.5C77.5 64.907 67.407 75 55 75S32.5 64.907 32.5 52.5V45H15z" fill="#f2484b"/><path fill="#98d9d5" d="M7.5 440h455v15H7.5z"/><path fill="#c1e8e6" d="M7.5 410h455v15H7.5z"/><path d="M0 432.5a7.5 7.5 0 0 0 7.5 7.5h455c4.143 0 7.5-3.358 7.5-7.5s-3.357-7.5-7.5-7.5H7.5a7.5 7.5 0 0 0-7.5 7.5zM0 462.5a7.5 7.5 0 0 0 7.5 7.5h455c4.143 0 7.5-3.358 7.5-7.5s-3.357-7.5-7.5-7.5H7.5a7.5 7.5 0 0 0-7.5 7.5zM462.5 30h-25v-7.5C437.5 10.093 427.406 0 415 0s-22.5 10.093-22.5 22.5V30h-75v-7.5C317.5 10.093 307.406 0 295 0s-22.5 10.093-22.5 22.5V30h-75v-7.5C197.5 10.093 187.407 0 175 0s-22.5 10.093-22.5 22.5V30h-75v-7.5C77.5 10.093 67.407 0 55 0S32.5 10.093 32.5 22.5V30h-25A7.5 7.5 0 0 0 0 37.5v365a7.5 7.5 0 0 0 7.5 7.5h455a7.5 7.5 0 0 0 7.5-7.5v-365a7.5 7.5 0 0 0-7.5-7.5zm-400-7.5v30c0 4.136-3.364 7.5-7.5 7.5s-7.5-3.364-7.5-7.5v-30c0-4.136 3.364-7.5 7.5-7.5s7.5 3.364 7.5 7.5zM55 75c12.407 0 22.5-10.093 22.5-22.5V45h75v7.5c0 12.407 10.093 22.5 22.5 22.5s22.5-10.093 22.5-22.5V45h75v7.5c0 12.407 10.094 22.5 22.5 22.5s22.5-10.093 22.5-22.5V45h75v7.5c0 12.407 10.094 22.5 22.5 22.5s22.5-10.093 22.5-22.5V45H455v77.3H15V45h17.5v7.5C32.5 64.907 42.593 75 55 75zm127.5-52.5v30c0 4.136-3.364 7.5-7.5 7.5s-7.5-3.364-7.5-7.5v-30c0-4.136 3.364-7.5 7.5-7.5s7.5 3.364 7.5 7.5zm120 0v30c0 4.136-3.364 7.5-7.5 7.5s-7.5-3.364-7.5-7.5v-30c0-4.136 3.364-7.5 7.5-7.5s7.5 3.364 7.5 7.5zm120 0v30c0 4.136-3.364 7.5-7.5 7.5s-7.5-3.364-7.5-7.5v-30c0-4.136 3.364-7.5 7.5-7.5s7.5 3.364 7.5 7.5zM15 395V137.3h440V395H15z" fill="#082947"/><path d="M412 226.8h-30c-4.143 0-7.5 3.358-7.5 7.5s3.357 7.5 7.5 7.5h30c4.143 0 7.5-3.358 7.5-7.5s-3.357-7.5-7.5-7.5z" fill="#f2484b"/><path d="M331 226.8h-30c-4.143 0-7.5 3.358-7.5 7.5s3.357 7.5 7.5 7.5h30c4.143 0 7.5-3.358 7.5-7.5s-3.357-7.5-7.5-7.5zM250 226.8h-30a7.5 7.5 0 0 0 0 15h30c4.143 0 7.5-3.358 7.5-7.5s-3.357-7.5-7.5-7.5zM169 226.8h-30a7.5 7.5 0 0 0 0 15h30a7.5 7.5 0 0 0 0-15zM88 226.8H58a7.5 7.5 0 0 0 0 15h30a7.5 7.5 0 0 0 0-15zM331 280.8h-30c-4.143 0-7.5 3.358-7.5 7.5s3.357 7.5 7.5 7.5h30c4.143 0 7.5-3.358 7.5-7.5s-3.357-7.5-7.5-7.5zM250 280.8h-30a7.5 7.5 0 0 0 0 15h30c4.143 0 7.5-3.358 7.5-7.5s-3.357-7.5-7.5-7.5zM169 280.8h-30a7.5 7.5 0 0 0 0 15h30a7.5 7.5 0 0 0 0-15zM88 280.8H58a7.5 7.5 0 0 0 0 15h30a7.5 7.5 0 0 0 0-15zM331 334.8h-30c-4.143 0-7.5 3.358-7.5 7.5s3.357 7.5 7.5 7.5h30c4.143 0 7.5-3.358 7.5-7.5s-3.357-7.5-7.5-7.5z" fill="#082947"/><path d="M412 280.8h-30c-4.143 0-7.5 3.358-7.5 7.5s3.357 7.5 7.5 7.5h30c4.143 0 7.5-3.358 7.5-7.5s-3.357-7.5-7.5-7.5zM412 334.8h-30c-4.143 0-7.5 3.358-7.5 7.5s3.357 7.5 7.5 7.5h30c4.143 0 7.5-3.358 7.5-7.5s-3.357-7.5-7.5-7.5z" fill="#f2484b"/><path d="M250 334.8h-30a7.5 7.5 0 0 0 0 15h30c4.143 0 7.5-3.358 7.5-7.5s-3.357-7.5-7.5-7.5zM169 334.8h-30a7.5 7.5 0 0 0 0 15h30a7.5 7.5 0 0 0 0-15zM88 334.8H58a7.5 7.5 0 0 0 0 15h30a7.5 7.5 0 0 0 0-15z" fill="#082947"/><path d="M412 172.8h-30c-4.143 0-7.5 3.358-7.5 7.5s3.357 7.5 7.5 7.5h30c4.143 0 7.5-3.358 7.5-7.5s-3.357-7.5-7.5-7.5z" fill="#f2484b"/><path d="M331 172.8h-30c-4.143 0-7.5 3.358-7.5 7.5s3.357 7.5 7.5 7.5h30c4.143 0 7.5-3.358 7.5-7.5s-3.357-7.5-7.5-7.5zM250 172.8h-30a7.5 7.5 0 0 0 0 15h30c4.143 0 7.5-3.358 7.5-7.5s-3.357-7.5-7.5-7.5zM169 172.8h-30a7.5 7.5 0 0 0 0 15h30a7.5 7.5 0 0 0 0-15zM88 172.8H58a7.5 7.5 0 0 0 0 15h30a7.5 7.5 0 0 0 0-15z" fill="#082947"/>
</symbol>
<symbol id="code" viewBox="0 0 512 512">
<path fill="#333" d="M160 357.416h192v108.336H160z"/><path d="M160 376.152h114.24L160 434.056z"/><path d="M377.456 487.848H134.544c-9.424 0-17.12-7.712-17.12-17.12 0-9.424 7.712-17.12 17.12-17.12H377.44c9.424 0 17.12 7.712 17.12 17.12.016 9.408-7.696 17.12-17.104 17.12z" fill="#999"/><path d="M480 376.152H32c-17.6 0-32-14.4-32-32v-288c0-17.6 14.4-32 32-32h448c17.6 0 32 14.4 32 32v288c0 17.6-14.4 32-32 32z" fill="#d6d6d6"/><path fill="#0ba4e0" d="M21.968 46.088h468.16v308.128H21.968z"/><g fill="#fff"><path d="m119.664 196.28 91.824-44.56v17.424l-72.832 33.904v.384l72.832 34.096v17.248l-91.824-44.544V196.28zM224.928 262.536l47.28-140.448h16.656l-47.28 140.448h-16.656zM392.336 210.616l-91.824 44.176v-17.248l74.016-34.096v-.384l-74.016-34.096V151.72l91.824 44.176v14.72z"/></g>
</symbol>
<symbol id="candles" viewBox="0 0 512 512">
<path d="M159.288 0c-20.388 8.911-34.642 29.245-34.642 52.919s14.254 44.008 34.642 52.919c20.388-8.911 34.642-29.245 34.642-52.919S179.677 8.911 159.288 0z" fill="#ffbf1f"/><path d="M159.288 76.584a9.103 9.103 0 0 0-9.102 9.102v98.642h18.204V85.686a9.1 9.1 0 0 0-9.102-9.102z" fill="#2a4b66"/><path d="M352.711 0c-20.388 8.911-34.642 29.245-34.642 52.919s14.254 44.008 34.642 52.919c20.388-8.911 34.642-29.245 34.642-52.919S373.1 8.911 352.711 0z" fill="#ffbf1f"/><path d="M352.711 76.584a9.103 9.103 0 0 0-9.102 9.102v98.642h18.204V85.686a9.102 9.102 0 0 0-9.102-9.102z" fill="#2a4b66"/><path d="M182.383 155.884h-46.189c-4.234 0-7.698 3.465-7.698 7.698v183.467h61.586V163.582c-.001-4.235-3.465-7.698-7.699-7.698z" fill="#d1dfe9"/><path fill="#ff4c1c" d="M108.202 329.978h102.161V512H108.202z"/><path d="M375.805 155.884h-46.189c-4.234 0-7.698 3.465-7.698 7.698v183.467h61.586V163.582c-.001-4.235-3.465-7.698-7.699-7.698z" fill="#b8c7d2"/><path fill="#bf2b06" d="M301.624 329.978h102.161V512H301.624z"/><path d="M221.213 339.084H97.364a9.103 9.103 0 0 1 0-18.204h123.851a9.103 9.103 0 1 1-.002 18.204z" fill="#ff7424"/><path d="M414.635 339.084H290.786a9.103 9.103 0 0 1 0-18.204h123.851a9.103 9.103 0 1 1-.002 18.204z" fill="#ff4c1c"/>
</symbol>
<symbol id="torah-213415" viewBox="0 0 512 512">
<path fill="#ffd69e" d="M91.022 128.705h331.093v254.862H91.022z"/><g fill="#ffc16c"><path d="M15.929 128.705H102.4v266.24H15.929zM410.738 117.328h86.471v277.618h-86.471z"/></g><g fill="#9e6134"><path d="M60.076 0C47.347 0 37.03 10.317 37.03 23.046c0 16.225 9.516 30.498 9.516 78.079l13.529 11.378 13.529-11.378c0-47.58 9.516-61.854 9.516-78.079C83.121 10.317 72.803 0 60.076 0zM46.545 410.878c0 47.58-9.516 61.852-9.516 78.077 0 12.728 10.319 23.046 23.046 23.046s23.046-10.318 23.046-23.046c0-16.225-9.516-30.496-9.516-78.077L60.075 399.5l-13.53 11.378zM468.414 101.125c0-47.58 9.516-61.854 9.516-78.079C477.93 10.317 467.612 0 454.885 0c-12.727 0-23.046 10.317-23.046 23.046 0 16.225 9.516 30.498 9.516 78.079l13.529 11.378 13.53-11.378zM441.354 410.878c0 47.58-9.516 61.852-9.516 78.077 0 12.728 10.319 23.046 23.046 23.046 12.727 0 23.046-10.318 23.046-23.046 0-16.225-9.516-30.496-9.516-78.077l-13.53-11.378-13.53 11.378z"/></g><g fill="#493123"><path d="M353.44 188.786h-68.178a9.103 9.103 0 0 1 0-18.204h68.178a9.103 9.103 0 0 1 0 18.204zM353.44 239.758h-68.178a9.103 9.103 0 0 1 0-18.204h68.178a9.103 9.103 0 0 1 9.102 9.102c.001 5.027-4.075 9.102-9.102 9.102zM353.44 290.731h-68.178a9.103 9.103 0 0 1 0-18.204h68.178a9.103 9.103 0 0 1 0 18.204zM353.44 341.703h-68.178a9.103 9.103 0 0 1 0-18.204h68.178a9.103 9.103 0 0 1 0 18.204zM227.876 188.786h-68.178a9.103 9.103 0 0 1 0-18.204h68.178a9.103 9.103 0 0 1 0 18.204zM227.876 239.758h-68.178a9.103 9.103 0 0 1 0-18.204h68.178a9.103 9.103 0 0 1 9.102 9.102c.001 5.027-4.075 9.102-9.102 9.102zM227.876 290.731h-68.178a9.103 9.103 0 0 1 0-18.204h68.178a9.103 9.103 0 0 1 0 18.204zM227.876 341.703h-68.178a9.103 9.103 0 0 1 0-18.204h68.178a9.103 9.103 0 0 1 0 18.204z"/></g><g fill="#b2805c"><path d="M117.191 117.778c0 6.038-4.895 10.933-10.933 10.933H10.933C4.895 128.711 0 123.816 0 117.778v-5.442c0-6.038 4.895-10.933 10.933-10.933h95.326c6.038 0 10.933 4.895 10.933 10.933v5.442h-.001zM117.191 399.947c0 6.038-4.895 10.931-10.933 10.931H10.933C4.895 410.878 0 405.985 0 399.947v-5.442c0-6.038 4.895-10.933 10.933-10.933h95.326c6.038 0 10.933 4.895 10.933 10.933v5.442h-.001zM512 117.778c0 6.038-4.895 10.933-10.933 10.933h-95.326c-6.038 0-10.933-4.895-10.933-10.933v-5.442c0-6.038 4.895-10.933 10.933-10.933h95.326c6.038 0 10.933 4.895 10.933 10.933v5.442zM512 399.947c0 6.038-4.895 10.931-10.933 10.931h-95.326c-6.038 0-10.933-4.892-10.933-10.931v-5.442c0-6.038 4.895-10.933 10.933-10.933h95.326c6.038 0 10.933 4.895 10.933 10.933v5.442z"/></g>
</symbol>
<symbol id="lulav-etrog" viewBox="0 0 512 512">
<path d="M386.227 411.501c0 34.184 18.086 63.127 43.123 73.312 2.06 9.04 10.109 15.8 19.767 15.8s17.706-6.76 19.759-15.8C493.921 474.627 512 445.685 512 411.501c0-34.18-18.079-63.123-43.123-73.315-2.054-9.032-10.102-15.792-19.759-15.792s-17.706 6.76-19.767 15.792c-25.037 10.191-43.124 39.135-43.124 73.315z" fill="#ffbf1f"/><g fill="#f1de8a"><path d="M461.009 438.254c2.241 0 4.397.919 6.014 2.456 1.616 1.703 2.462 3.779 2.462 6.014 0 2.223-.845 4.465-2.462 6.075-3.234 3.16-8.771 3.16-12.017 0-1.617-1.61-2.462-3.852-2.462-6.075 0-2.236.845-4.311 2.462-5.929 1.629-1.621 3.773-2.541 6.003-2.541zM476.424 414.007c2.242 0 4.397.925 6.002 2.461 1.617 1.703 2.474 3.772 2.474 6.002 0 2.235-.857 4.464-2.474 6.093-3.233 3.148-8.769 3.148-12.003 0-1.63-1.628-2.462-3.858-2.462-6.093 0-2.23.833-4.299 2.462-5.916 1.629-1.623 3.771-2.547 6.001-2.547zM296.689 73.549a9.023 9.023 0 0 0-9.022 9.022v41.603l18.044 39.934V82.571a9.021 9.021 0 0 0-9.022-9.022zM369.315 73.549a9.023 9.023 0 0 1 9.022 9.022v41.603l-18.044 39.934V82.571a9.022 9.022 0 0 1 9.022-9.022z"/></g><path fill="#adbf3b" d="M378.327 256.054v65.939l-47.58 54.865v-88.494z"/><g fill="#cfd16a"><path d="M378.327 190.114v65.94l-47.58 54.865v-88.495z"/><path d="M335.258 288.364v88.494l-47.591-54.865v-65.939z"/></g><path fill="#adbf3b" d="M335.258 222.424v88.495l-47.591-54.865v-65.94z"/><path fill="#cfd16a" d="M335.258 179.039v65.94l-47.591-54.865v-65.94z"/><path fill="#adbf3b" d="M378.327 124.174v65.94l-47.58 54.865v-65.94z"/><path d="M333.003 509.629a9.023 9.023 0 0 1-9.022-9.022V42.762a9.023 9.023 0 0 1 18.044 0v457.845a9.023 9.023 0 0 1-9.022 9.022z" fill="#f1de8a"/><path d="M218.451 2.365c18.8 25.555 31.859 66.346 30.957 112.29-1.793 92.589-7.488 281.6-7.488 281.6v104.351h-23.469L200.407 240.95 218.451 2.365z" fill="#adbf3b"/><path d="M218.451 2.365v498.241h-23.469v-104.35s-5.695-189.011-7.5-281.6c-.89-45.945 12.17-86.736 30.969-112.291z" fill="#cfd16a"/><path d="M249.015 439.109h-61.126a9.023 9.023 0 0 1 0-18.044h61.126a9.023 9.023 0 0 1 0 18.044z" fill="#76472d"/><path d="M249.015 405.277h-61.126a9.023 9.023 0 0 1 0-18.044h61.126a9.023 9.023 0 0 1 0 18.044z" fill="#9e6134"/><path d="M249.015 371.444h-61.126a9.023 9.023 0 0 1 0-18.044h61.126a9.023 9.023 0 0 1 0 18.044z" fill="#76472d"/><path d="M98.612 340.794c-14.304 14.304-20.921 33.082-19.483 50.431 17.349 1.438 36.125-5.179 50.431-19.483 14.304-14.304 20.921-33.082 19.483-50.431-17.35-1.438-36.127 5.179-50.431 19.483z" fill="#adbf3b"/><g fill="#cfd16a"><path d="M50.624 340.794c14.304 14.304 20.921 33.082 19.483 50.431-17.349 1.438-36.125-5.179-50.431-19.483C5.371 357.437-1.245 338.66.193 321.311c17.348-1.438 36.125 5.179 50.431 19.483zM98.612 254.392c-14.304 14.304-20.921 33.081-19.483 50.431 17.349 1.438 36.125-5.179 50.431-19.483 14.304-14.304 20.921-33.082 19.483-50.431-17.35-1.439-36.127 5.178-50.431 19.483z"/></g><g fill="#adbf3b"><path d="M50.624 254.392c14.304 14.304 20.921 33.081 19.483 50.431-17.349 1.438-36.125-5.179-50.431-19.483C5.371 271.035-1.245 252.258.193 234.909c17.348-1.439 36.125 5.178 50.431 19.483zM98.612 167.99c-14.304 14.304-20.921 33.082-19.483 50.431 17.349 1.438 36.125-5.179 50.431-19.483s20.921-33.082 19.483-50.431c-17.35-1.438-36.127 5.178-50.431 19.483z"/></g><path d="M50.624 167.99c14.304 14.304 20.921 33.082 19.483 50.431-17.349 1.438-36.125-5.179-50.431-19.483S-1.245 165.856.193 148.507c17.348-1.438 36.125 5.178 50.431 19.483z" fill="#cfd16a"/><path d="M65.403 109.713v390.9a9.023 9.023 0 0 0 18.044 0v-390.9H65.403z" fill="#f1de8a"/><path d="M74.425 42.762C61.14 54.012 52.542 71.968 52.542 92.198c0 15.172 4.836 29.063 12.858 39.807l18.047.005c8.024-10.745 12.861-24.639 12.861-39.813 0-20.229-8.599-38.185-21.883-49.435z" fill="#cfd16a"/>
</symbol>
<symbol id="magen-david" viewBox="0 0 512 512">
<path d="m255.955 0-125.45 217.287h-22.343v38.698L33.86 384.683h250.971v22.756l44.692-22.756H478.14L351.838 166.011v-22.756l-22.337-15.916L255.955 0zM256 77.392l28.83 49.927v27.318l22.345 11.378 103.927 179.973h-59.233v-22.756l-44.692 22.756H100.898l29.615-51.286h22.345v-38.696L256 77.392z" fill="#33a6f2"/><g fill="#75c8ff"><path d="M351.869 345.987h-44.692l103.925-179.974h-59.267L329.5 127.34c.034-.023 148.639-.023 148.639-.023l-126.27 218.67zM256 434.608l28.831-49.925h44.692L256 512 130.526 294.707l22.346-38.696zM284.831 127.317l22.346 38.696H100.898l29.616 51.28-22.345 38.696L33.86 127.317z"/></g>
</symbol>
</defs>
</svg>
