<?xml version="1.0"?>
<svg xmlns="http://www.w3.org/2000/svg" xmlns:xlink="http://www.w3.org/1999/xlink">
<defs>
<symbol id="hebcal-logo" width="77" height="21">
<path d="M19.884 14.513c.655-.32 1.182-.663 1.582-1.034.4-.372.71-.748.93-1.13.222-.38.37-.752.445-1.117.076-.365.113-.704.113-1.016 0-.486-.107-.823-.322-1.01-.214-.188-.528-.28-.94-.28h-3.36c-.35 0-.64-.035-.874-.104-.234-.07-.42-.168-.562-.3-.14-.13-.24-.29-.3-.477s-.088-.4-.088-.636c0-.48.01-.87.033-1.165.02-.296.064-.552.13-.767.065-.216.156-.418.27-.61.116-.19.27-.415.464-.677.032-.036.05-.066.056-.088.007-.022.01-.04.01-.05 0-.064-.036-.125-.108-.184-.07-.06-.176-.142-.313-.248-.238-.187-.435-.362-.59-.524-.157-.162-.235-.327-.235-.496 0-.093.034-.203.103-.327.07-.125.158-.258.267-.398.11-.14.234-.285.374-.435.14-.15.28-.296.425-.44.056 0 .122.012.196.037.076.025.14.053.188.085-.024.118-.034.216-.027.294.007.078.033.153.08.225.047.073.12.148.215.226.097.078.226.18.39.304.26.2.445.358.55.477.107.12.16.237.16.356 0 .093-.028.195-.084.304-.055.11-.127.22-.215.332-.087.11-.185.227-.294.345-.11.12-.216.234-.322.346-.106.114-.19.22-.253.324-.062.103-.112.212-.15.328-.037.115-.062.243-.075.383-.012.14-.018.3-.018.482 0 .2.012.364.037.492.024.127.076.228.154.303.078.075.19.126.336.154.147.028.34.042.576.042h3.21c.386 0 .717.06.992.177.274.12.5.28.674.482.174.202.302.436.383.7.08.266.122.548.122.848 0 .58-.095 1.215-.286 1.904-.19.69-.47 1.383-.846 2.082-.374.7-.834 1.377-1.38 2.036-.546.658-1.174 1.25-1.885 1.773-.145-.02-.273-.053-.385-.103.056-.356.123-.727.2-1.114.08-.386.162-.758.25-1.113m-6.046 2.367c-.014-.125-.026-.3-.038-.528-.013-.228-.025-.472-.038-.73-.012-.26-.022-.52-.028-.782-.006-.262-.01-.486-.01-.674 0-.642.01-1.193.03-1.65.017-.46.04-.86.064-1.204l.066-.907c.018-.262.028-.518.028-.768 0-.093-.022-.17-.066-.23-.043-.058-.103-.108-.178-.15-.074-.04-.16-.072-.257-.097-.097-.025-.195-.053-.295-.084-.243-.07-.463-.133-.66-.192-.196-.06-.366-.128-.51-.206-.143-.078-.254-.17-.332-.276-.078-.106-.117-.237-.117-.393 0-.088.02-.215.06-.38.04-.165.094-.343.16-.533.065-.19.138-.38.22-.567.08-.187.158-.346.233-.477.05-.03.117-.048.2-.05.086-.004.162 0 .23.013.038.15.09.273.155.37.066.096.155.18.267.247.112.07.25.128.412.178.162.05.36.107.598.17.213.056.387.11.524.16.137.048.243.1.318.153.075.053.126.11.154.173.028.063.042.13.042.206 0 .05-.01.133-.028.248-.02.116-.037.24-.056.37-.03.212-.064.47-.098.772-.035.302-.052.688-.052 1.155 0 .655.03 1.306.09 1.95.058.647.132 1.263.22 1.85l.102.74c.03.23.047.408.047.532 0 .118-.014.212-.04.28-.024.07-.064.14-.12.216-.138.18-.276.368-.417.56-.14.194-.263.372-.37.534-.174.02-.346.02-.514 0M1.944 6.053c.08.18.167.323.257.426.09.102.195.18.314.233.12.053.256.087.412.103.156.016.34.023.552.023h4.407c.393 0 .722.027.988.083.265.057.477.14.636.248.16.11.272.248.338.413.065.166.098.357.098.576 0 .21-.033.443-.098.696-.066.253-.136.528-.21.828 0 .923.04 1.746.12 2.466.082.72.16 1.355.235 1.904l.103.72c.03.22.047.39.047.515 0 .118-.013.212-.038.28-.025.07-.065.14-.122.216-.13.18-.255.36-.374.542-.12.18-.232.365-.338.552-.174.02-.346.02-.514 0-.02-.118-.04-.29-.06-.514-.023-.225-.043-.467-.062-.726-.02-.26-.034-.516-.047-.772-.013-.256-.02-.477-.02-.664 0-.543.002-1.01.005-1.404.003-.393.008-.728.014-1.006.005-.277.012-.51.018-.697.006-.187.012-.35.02-.486l.013-.45c.004-.13.005-.28.005-.448 0-.15-.01-.274-.028-.374-.018-.1-.06-.18-.126-.243-.065-.063-.163-.107-.294-.13-.13-.027-.306-.04-.524-.04H3.237c-.032.488-.052.976-.06 1.466-.01.49-.015.978-.015 1.465 0 .643.006 1.282.018 1.92l.038 1.935c0 .057-.005.11-.014.16-.01.05-.036.09-.08.12-.093.076-.193.156-.3.24l-.303.243c-.096.078-.187.153-.27.225-.085.072-.155.132-.21.182-.157.02-.31.02-.46 0 .063-1.34.137-2.674.225-4 .087-1.326.237-2.647.45-3.963-.182-.013-.35-.033-.502-.06-.153-.03-.285-.076-.397-.14-.113-.067-.2-.156-.262-.268C1.03 8.335 1 8.19 1 8.01c0-.057.012-.148.037-.273.025-.124.06-.27.108-.44.047-.168.103-.353.168-.556.066-.202.136-.406.21-.612.063-.03.132-.053.207-.065.075-.013.147-.016.215-.01z" fill-rule="evenodd" fill="#941003"/>
<path d="M28.258 16.733v-.772l1.172-.196v-8.75l-1.123-.19V6.05h3.93v.773l-1.2.19v3.775h4.948V7.013l-1.137-.19V6.05h3.874v.773l-1.123.19v8.758l1.122.19v.773h-3.86v-.772l1.123-.19V11.7h-4.948v4.07l1.2.19v.773h-3.98m15.39.16c-.595 0-1.115-.102-1.562-.308-.447-.205-.82-.493-1.12-.863-.3-.37-.524-.81-.673-1.323-.15-.513-.225-1.076-.225-1.69 0-.62.094-1.188.28-1.7.188-.513.45-.953.783-1.32.335-.367.73-.652 1.19-.853.458-.2.96-.302 1.502-.302.884 0 1.57.24 2.056.72.487.48.75 1.19.793 2.13.006.304.004.57-.006.796-.01.228-.032.428-.07.602h-4.857v.042c.02.533.096.99.232 1.368.135.38.31.69.53.93.217.24.466.417.746.527.28.108.574.163.877.163.202 0 .405-.018.61-.056.207-.037.405-.086.594-.147.19-.06.363-.13.52-.21.156-.08.286-.16.39-.24l.294.69c-.135.134-.307.265-.515.392-.208.126-.44.237-.694.333-.255.096-.525.173-.81.232-.286.058-.573.087-.864.087m-.175-7.516c-.233 0-.45.04-.652.122-.2.082-.377.222-.53.418-.152.197-.276.46-.372.786-.095.328-.155.74-.178 1.235h3.256c.01-.094.015-.192.017-.295.004-.103.005-.2.005-.288 0-.262-.028-.512-.084-.75-.056-.24-.144-.45-.266-.633-.122-.182-.28-.327-.474-.435-.194-.108-.433-.162-.72-.162m4.877 6.962V6.05l-1.15-.125-.002-.667 2.337-.316h.03l.35.24v4.3c.12-.116.258-.232.41-.346.152-.115.32-.217.506-.306.184-.09.388-.16.61-.214.222-.054.462-.08.72-.08.402 0 .792.073 1.17.22.38.148.715.38 1.005.695.29.317.523.723.7 1.22.174.495.262 1.092.262 1.79 0 .612-.095 1.188-.285 1.73-.19.54-.462 1.01-.817 1.41-.356.4-.788.715-1.3.947-.51.232-1.082.347-1.718.347-.35 0-.688-.02-1.01-.06-.324-.04-.61-.088-.864-.147-.252-.058-.462-.12-.63-.182-.17-.063-.277-.118-.323-.165m3.158-6.73c-.188 0-.363.02-.527.066-.164.044-.312.102-.446.172-.133.07-.252.147-.357.23-.106.086-.193.168-.263.247v5.285c.032.08.09.15.175.207.084.06.187.108.31.147.12.04.256.07.406.092.15.02.31.03.477.03.332 0 .638-.07.916-.21.28-.14.52-.35.723-.63.203-.282.363-.633.48-1.054.117-.42.18-.914.19-1.48.008-.525-.038-.98-.14-1.37-.104-.388-.25-.71-.436-.968-.188-.257-.41-.45-.667-.575-.257-.128-.538-.19-.842-.19m5.003 3.25c0-.586.09-1.14.274-1.66.182-.523.448-.98.796-1.377.35-.395.776-.71 1.28-.94.506-.232 1.077-.348 1.714-.348.234 0 .458.016.673.046.216.03.416.07.6.113.185.045.35.093.495.144.145.052.265.1.358.14l-.07 2.064h-.947l-.315-1.164c-.122-.16-.275-.282-.46-.368-.185-.087-.41-.13-.678-.13-.266 0-.52.06-.764.182s-.46.305-.65.55c-.19.247-.34.553-.456.92-.114.368-.174.797-.178 1.288-.006.632.056 1.17.184 1.615.13.444.3.806.516 1.084.216.278.465.48.75.607.286.126.584.19.893.19.22 0 .426-.02.62-.057.195-.037.374-.086.538-.147.164-.06.314-.13.45-.207.135-.077.255-.153.358-.228l.308.674c-.126.13-.283.257-.47.38-.187.125-.396.236-.628.334-.232.1-.476.178-.733.24-.258.06-.52.09-.787.09-.603 0-1.133-.104-1.59-.312-.455-.208-.837-.492-1.143-.853-.307-.36-.538-.788-.695-1.282-.157-.493-.237-1.023-.242-1.59m7.27 1.77c0-.338.064-.638.19-.902.127-.265.3-.498.52-.7.22-.2.478-.37.775-.51.297-.142.618-.256.962-.345.344-.088.702-.153 1.074-.195.37-.043.74-.068 1.104-.078v-.372c0-.327-.023-.604-.07-.83-.047-.228-.127-.413-.242-.556-.115-.144-.268-.246-.46-.31-.192-.063-.435-.094-.73-.094-.253 0-.505.023-.758.07-.253.047-.494.104-.726.172-.232.068-.445.14-.64.217-.193.078-.356.15-.487.214h-.006l-.315-.674c.087-.085.244-.192.47-.323.223-.13.49-.258.795-.38.307-.12.637-.226.99-.315.353-.09.705-.133 1.056-.133.492 0 .908.05 1.247.15.34.1.614.263.825.485.21.222.36.51.452.863.09.353.137.785.137 1.295v4.576h.87v.68c-.087.024-.194.05-.318.08-.124.032-.254.06-.39.086-.135.025-.273.047-.413.066-.142.02-.275.028-.4.028-.133 0-.246-.005-.342-.017-.096-.012-.174-.042-.235-.09-.06-.05-.106-.124-.137-.223-.03-.098-.046-.23-.046-.4v-.26c-.06.057-.16.14-.298.25-.138.11-.307.22-.51.33-.2.11-.43.206-.687.287-.257.083-.533.124-.828.124-.323 0-.63-.043-.922-.13-.293-.086-.55-.22-.772-.403-.223-.18-.4-.417-.534-.704-.134-.288-.2-.63-.2-1.03m3.03 1.194c.1 0 .216-.012.352-.038.135-.026.276-.062.42-.11.146-.046.29-.104.432-.174.143-.07.273-.148.39-.232v-2.583c-.56 0-1.03.05-1.407.148-.377.1-.677.23-.902.39-.225.162-.384.345-.477.55-.094.207-.14.422-.14.647 0 .257.033.475.1.652.07.177.163.322.282.435.12.112.26.193.424.242.164.05.34.073.527.073m4.914.913v-.772l1.158-.118v-9.79l-1.158-.127v-.667l2.358-.316h.014l.35.246v10.654l1.215.12v.77h-3.936z" fill-rule="evenodd" fill="#333"/>
</symbol>
<symbol id="gi-print" viewBox="0 0 32 32">
<path d="M10,22H22v5a1,1,0,0,1-1,1H11a1,1,0,0,1-1-1ZM23,5a1,1,0,0,0-1-1H10A1,1,0,0,0,9,5V9H23Zm5,8V23a2.00591,2.00591,0,0,1-2,2H24V21a1.00291,1.00291,0,0,0-1-1H9a1.00291,1.00291,0,0,0-1,1v4H6a2.00591,2.00591,0,0,1-2-2V13a2.00591,2.00591,0,0,1,2-2H26A2.00591,2.00591,0,0,1,28,13Zm-2,.5a.5.5,0,0,0-.5-.5H23.49872a.5.5,0,0,0-.5.5v1a.5.5,0,0,0,.5.5H25.5a.5.5,0,0,0,.5-.5Z"/>
</symbol>
<symbol id="gi-calendar" viewBox="0 0 32 32">
<path d="M15,18.5v1a.5.5,0,0,1-.5.5h-1a.5.5,0,0,1-.5-.5v-1a.5.5,0,0,1,.5-.5h1A.5.5,0,0,1,15,18.5ZM14.5,22h-1a.5.5,0,0,0-.5.5v1a.5.5,0,0,0,.5.5h1a.5.5,0,0,0,.5-.5v-1A.5.5,0,0,0,14.5,22Zm0-8h-1a.5.5,0,0,0-.5.5v1a.5.5,0,0,0,.5.5h1a.5.5,0,0,0,.5-.5v-1A.5.5,0,0,0,14.5,14Zm4,8h-1a.5.5,0,0,0-.5.5v1a.5.5,0,0,0,.5.5h1a.5.5,0,0,0,.5-.5v-1A.5.5,0,0,0,18.5,22Zm-8-4h-1a.5.5,0,0,0-.5.5v1a.5.5,0,0,0,.5.5h1a.5.5,0,0,0,.5-.5v-1A.5.5,0,0,0,10.5,18Zm0,4h-1a.5.5,0,0,0-.5.5v1a.5.5,0,0,0,.5.5h1a.5.5,0,0,0,.5-.5v-1A.5.5,0,0,0,10.5,22Zm12-8h-1a.5.5,0,0,0-.5.5v1a.5.5,0,0,0,.5.5h1a.5.5,0,0,0,.5-.5v-1A.5.5,0,0,0,22.5,14Zm0,4h-1a.5.5,0,0,0-.5.5v1a.5.5,0,0,0,.5.5h1a.5.5,0,0,0,.5-.5v-1A.5.5,0,0,0,22.5,18Zm-4,0h-1a.5.5,0,0,0-.5.5v1a.5.5,0,0,0,.5.5h1a.5.5,0,0,0,.5-.5v-1A.5.5,0,0,0,18.5,18Zm0-4h-1a.5.5,0,0,0-.5.5v1a.5.5,0,0,0,.5.5h1a.5.5,0,0,0,.5-.5v-1A.5.5,0,0,0,18.5,14ZM27,7V26a2.00006,2.00006,0,0,1-2,2H7a2.00006,2.00006,0,0,1-2-2V7A2.002,2.002,0,0,1,7,5V6.5a.5.5,0,0,0,.5.5h1A.5.5,0,0,0,9,6.5v-1A.5.5,0,0,1,9.5,5h1a.5.5,0,0,1,.5.5v1a.5.5,0,0,0,.5.5h1a.5.5,0,0,0,.5-.5v-1a.5.5,0,0,1,.5-.5h1a.5.5,0,0,1,.5.5v1a.5.5,0,0,0,.5.5h1a.5.5,0,0,0,.5-.5v-1a.5.5,0,0,1,.5-.5h1a.5.5,0,0,1,.5.5v1a.5.5,0,0,0,.5.5h1a.5.5,0,0,0,.5-.5v-1a.5.5,0,0,1,.5-.5h1a.5.5,0,0,1,.5.5v1a.5.5,0,0,0,.5.5h1a.5.5,0,0,0,.5-.5V5A2.002,2.002,0,0,1,27,7ZM25.00146,26l-.00109-14H7V26Z"/>
</symbol>
<symbol id="bi-cloud-download" viewBox="0 0 16 16">
<path fill-rule="evenodd" d="M4.406 1.342A5.53 5.53 0 0 1 8 0c2.69 0 4.923 2 5.166 4.579C14.758 4.804 16 6.137 16 7.773 16 9.569 14.502 11 12.687 11H10a.5.5 0 0 1 0-1h2.688C13.979 10 15 8.988 15 7.773c0-1.216-1.02-2.228-2.313-2.228h-.5v-.5C12.188 2.825 10.328 1 8 1a4.53 4.53 0 0 0-2.941 1.1c-.757.652-1.153 1.438-1.153 2.055v.448l-.445.049C2.064 4.805 1 5.952 1 7.318 1 8.785 2.23 10 3.781 10H6a.5.5 0 0 1 0 1H3.781C1.708 11 0 9.366 0 7.318c0-1.763 1.266-3.223 2.942-3.593.143-.863.698-1.723 1.464-2.383z"/>
<path fill-rule="evenodd" d="M7.646 15.854a.5.5 0 0 0 .708 0l3-3a.5.5 0 0 0-.708-.708L8.5 14.293V5.5a.5.5 0 0 0-1 0v8.793l-2.146-2.147a.5.5 0 0 0-.708.708l3 3z"/>
</symbol>
<symbol id="gi-cogwheel" viewBox="0 0 32 32">
<path d="M27.83521,14.75977a.50437.50437,0,0,0-.3808-.43165l-2.81769-.70507a8.94342,8.94342,0,0,0-.89551-2.167l1.49121-2.48449a.50672.50672,0,0,0-.038-.57923A11.97611,11.97611,0,0,0,23.512,6.71a.50681.50681,0,0,0-.57922-.03808L20.44818,8.16309a8.94053,8.94053,0,0,0-2.16687-.89551L17.57617,4.45a.50438.50438,0,0,0-.43164-.38086,10.32381,10.32381,0,0,0-2.38476,0,.5044.5044,0,0,0-.43165.38086L13.623,7.26758a8.92589,8.92589,0,0,0-2.165.89551L8.97253,6.6709a.5068.5068,0,0,0-.57922.03808A11.96918,11.96918,0,0,0,6.71088,8.39136a.507.507,0,0,0-.038.57934l1.49121,2.48438a8.89783,8.89783,0,0,0-.89648,2.168l-2.81769.70507a.50448.50448,0,0,0-.38086.43165,10.33272,10.33272,0,0,0,0,2.38476.50446.50446,0,0,0,.38086.43164l2.81769.70508a8.89087,8.89087,0,0,0,.89648,2.167l-1.49212,2.4845a.50658.50658,0,0,0,.038.57922,11.97622,11.97622,0,0,0,1.68237,1.68238.50673.50673,0,0,0,.57917.03808l2.48462-1.49121a8.93994,8.93994,0,0,0,2.16687.89551l.70513,2.81763a.50442.50442,0,0,0,.43165.38086,10.32381,10.32381,0,0,0,2.38476,0,.50441.50441,0,0,0,.43164-.38086l.70514-2.81763a8.93493,8.93493,0,0,0,2.16791-.89649l2.48535,1.49122a.50663.50663,0,0,0,.57922-.03821A12.00092,12.00092,0,0,0,25.19525,23.511a.5066.5066,0,0,0,.038-.57923l-1.49207-2.48449a8.93642,8.93642,0,0,0,.89551-2.166l2.81769-.70508a.50434.50434,0,0,0,.3808-.43164,10.32381,10.32381,0,0,0,0-2.38476Zm-11.88312,5.373a4.18067,4.18067,0,1,1,4.18072-4.18066A4.18111,4.18111,0,0,1,15.95209,20.13281Z"/>
</symbol>
<symbol id="gi-list" viewBox="0 0 32 32">
<path d="M28,24v1a1,1,0,0,1-1,1H11a1,1,0,0,1-1-1V24a1,1,0,0,1,1-1H27A1,1,0,0,1,28,24Zm-1-7H11a1,1,0,0,0-1,1v1a1,1,0,0,0,1,1H27a1,1,0,0,0,1-1V18A1,1,0,0,0,27,17Zm0-6H11a1,1,0,0,0-1,1v1a1,1,0,0,0,1,1H27a1,1,0,0,0,1-1V12A1,1,0,0,0,27,11Zm0-6H11a1,1,0,0,0-1,1V7a1,1,0,0,0,1,1H27a1,1,0,0,0,1-1V6A1,1,0,0,0,27,5ZM6,23H5a1,1,0,0,0-1,1v1a1,1,0,0,0,1,1H6a1,1,0,0,0,1-1V24A1,1,0,0,0,6,23Zm0-6H5a1,1,0,0,0-1,1v1a1,1,0,0,0,1,1H6a1,1,0,0,0,1-1V18A1,1,0,0,0,6,17Zm0-6H5a1,1,0,0,0-1,1v1a1,1,0,0,0,1,1H6a1,1,0,0,0,1-1V12A1,1,0,0,0,6,11ZM6,5H5A1,1,0,0,0,4,6V7A1,1,0,0,0,5,8H6A1,1,0,0,0,7,7V6A1,1,0,0,0,6,5Z"/>
</symbol>
<symbol id="gi-refresh" viewBox="0 0 32 32">
<path d="M27.99908,15.83618A12.00008,12.00008,0,0,1,16.71484,27.97852c-.24414.01464-.48828.022-.73046.022a11.89341,11.89341,0,0,1-7.17121-2.39478L7.42542,27.16956a.5.5,0,0,1-.85975-.21326L5.08826,20.90479a.5.5,0,0,1,.54571-.615l6.18421.74732a.5.5,0,0,1,.314.82825L10.81372,23.3512A8.998,8.998,0,0,0,24.99817,15.798a1.07162,1.07162,0,0,1,.31824-.8341,1.03419,1.03419,0,0,1,.80731-.26123l1.00909.12207a1.08451,1.08451,0,0,1,.61676.3247A.93076.93076,0,0,1,27.99908,15.83618ZM6.68359,17.03613a1.07162,1.07162,0,0,0,.31824-.8341A8.99623,8.99623,0,0,1,21.18628,8.6488L19.8678,10.13464a.5.5,0,0,0,.314.82825l6.18421.74732a.5.5,0,0,0,.54571-.615L25.43433,5.0437a.5.5,0,0,0-.85975-.21326L23.18683,6.39429a11.89341,11.89341,0,0,0-7.17121-2.39478c-.24218,0-.48632.00733-.73046.022A12.00008,12.00008,0,0,0,4.00092,16.16382a.93076.93076,0,0,0,.24951.68677,1.08451,1.08451,0,0,0,.61676.3247l1.00909.12207A1.03419,1.03419,0,0,0,6.68359,17.03613Z"/>
</symbol>
<symbol id="gi-user-parents" viewBox="0 0 32 32">
<path d="M28.17047,24.67822A2.15727,2.15727,0,0,1,29,26.23669V27.5a.5.5,0,0,1-.5.5H20.94946A2.50046,2.50046,0,0,0,21,27.5V26.23682a3.48694,3.48694,0,0,0-.77911-2.35193A4.26757,4.26757,0,0,0,21.15723,24h.68554a4.88334,4.88334,0,0,0,3.80713-1.978C26.556,22.98669,27.81232,24.32007,28.17047,24.67822Zm1.08563-6.97461C26.5224,13.75513,29.56964,6,24,6a5.1588,5.1588,0,0,0-7.15405.00391A7.04129,7.04129,0,0,1,18,10v1.6709a3.35379,3.35379,0,0,1,.50879,3.40137l-.27832.75a4.72611,4.72611,0,0,1-1.39453,1.94091L16.38385,19.833a20.40837,20.40837,0,0,0,2.238.3855A2.89327,2.89327,0,0,0,21.157,22H21.843a2.89317,2.89317,0,0,0,2.53631-1.78418,16.84319,16.84319,0,0,0,4.39606-1.05469A.99171.99171,0,0,0,29.2561,17.70361ZM18.17047,24.67822c-.43512-.32959-1.82849-1.47961-2.95166-2.41211A5.01529,5.01529,0,0,1,11.44775,24H9.55225a5.01415,5.01415,0,0,1-3.77674-1.7417c-1.1488.947-2.57312,2.11963-2.946,2.41992A1.85972,1.85972,0,0,0,2,26.23669V27.5a.5.5,0,0,0,.5.5h16a.5.5,0,0,0,.5-.5V26.23669A1.65805,1.65805,0,0,0,18.17047,24.67822ZM4.64478,15.12573a2.99143,2.99143,0,0,0,1.31073,1.462l.66583,3.05176A2.99994,2.99994,0,0,0,9.55237,22h1.89526a2.99994,2.99994,0,0,0,2.931-2.36047l.66583-3.05176a2.99115,2.99115,0,0,0,1.31073-1.462l.28-.75146A1.2749,1.2749,0,0,0,16,12.62988V10c0-3-2-5-5.5-5S5,7,5,10v2.62988a1.2749,1.2749,0,0,0-.63519,1.74439Z"/>
</symbol>
<symbol id="gi-candle" viewBox="0 0 32 32">
<path d="M13.50555,11.76514c-2.19653-2.967.48481-6.31324,2.9513-8.511a.49292.49292,0,0,1,.7987.21265c.6883,2.16943,2.30848,4.0144,2.30848,6.2644a4.21768,4.21768,0,0,1-.95008,2.82788.49981.49981,0,0,1-.85992-.43579c.23-1.42505-.75836-2.55908-1.52179-3.64673a.24622.24622,0,0,0-.37866-.03467,3.78949,3.78949,0,0,0-1.45417,2.9773A.50074.50074,0,0,1,13.50555,11.76514ZM24.382,24H7.618a1,1,0,0,0-.89443,1.44722L8,28H24l1.27642-2.55278A1,1,0,0,0,24.382,24ZM21,16a1,1,0,0,0-1-1H12a1,1,0,0,0-1,1v6H21Z"/>
</symbol>
<symbol id="gi-book-open" viewBox="0 0 32 32">
<path d="M25.99994,5h-6a4.99548,4.99548,0,0,0-4,2.00311,4.99548,4.99548,0,0,0-4-2.00311h-6a3.00335,3.00335,0,0,0-3,3V23a3,3,0,0,0,3,3h6a1.25185,1.25185,0,0,1,1.15454.77246A2.00011,2.00011,0,0,0,14.99634,28h2.00708a2.0004,2.0004,0,0,0,1.84241-1.22858A1.24982,1.24982,0,0,1,19.9989,26h6.001a3,3,0,0,0,3-3V8A3.00336,3.00336,0,0,0,25.99994,5Zm-11,19.00049h-.18359A2.99129,2.99129,0,0,0,11.99994,22h-6a1,1,0,0,1-1-1V8a1,1,0,0,1,1-1h6a3,3,0,0,1,3,3Zm12-3.00049a1,1,0,0,1-1,1h-6a2.99128,2.99128,0,0,0-2.81641,2.00049h-.18359V10a3,3,0,0,1,3-3h6a1,1,0,0,1,1,1Z"/>
</symbol>
<symbol id="gi-book-open-text" viewBox="0 0 32 32">
<path d="M25.99994,5h-6a4.99548,4.99548,0,0,0-4,2.00311,4.99548,4.99548,0,0,0-4-2.00311h-6a3.00335,3.00335,0,0,0-3,3V23a3,3,0,0,0,3,3h6a1.25185,1.25185,0,0,1,1.15454.77246A2.00011,2.00011,0,0,0,14.99634,28h2.00708a2.0004,2.0004,0,0,0,1.84241-1.22858A1.24982,1.24982,0,0,1,19.9989,26h6.001a3,3,0,0,0,3-3V8A3.00336,3.00336,0,0,0,25.99994,5Zm-11,19.00049h-.18359A2.99129,2.99129,0,0,0,11.99994,22h-6a1,1,0,0,1-1-1V8a1,1,0,0,1,1-1h6a3,3,0,0,1,3,3Zm12-3.00049a1,1,0,0,1-1,1h-6a2.99128,2.99128,0,0,0-2.81641,2.00049h-.18359V10a3,3,0,0,1,3-3h6a1,1,0,0,1,1,1Zm-14-3.5v1a.5.5,0,0,1-.5.5h-5a.5.5,0,0,1-.5-.5v-1a.5.5,0,0,1,.5-.5h5A.5.5,0,0,1,12.99994,17.5Zm0-4v1a.5.5,0,0,1-.5.5h-5a.5.5,0,0,1-.5-.5v-1a.5.5,0,0,1,.5-.5h5A.5.5,0,0,1,12.99994,13.5Zm0-4v1a.5.5,0,0,1-.5.5h-5a.5.5,0,0,1-.5-.5v-1a.5.5,0,0,1,.5-.5h5A.5.5,0,0,1,12.99994,9.5Zm12,0v1a.5.5,0,0,1-.5.5h-5a.5.5,0,0,1-.5-.5v-1a.5.5,0,0,1,.5-.5h5A.5.5,0,0,1,24.99994,9.5Zm-2,8v1a.5.5,0,0,1-.5.5h-3a.5.5,0,0,1-.5-.5v-1a.5.5,0,0,1,.5-.5h3A.5.5,0,0,1,22.99994,17.5Zm2-4v1a.5.5,0,0,1-.5.5h-5a.5.5,0,0,1-.5-.5v-1a.5.5,0,0,1,.5-.5h5A.5.5,0,0,1,24.99994,13.5Z"/>
</symbol>
<symbol id="gi-envelope" viewBox="0 0 32 32">
<path d="M14.69305,17.707,3.986,7h24L17.27893,17.707a1.15255,1.15255,0,0,1-.70709.293H15.40015A1.15257,1.15257,0,0,1,14.69305,17.707ZM10.17169,16,4,9.82812V22.17188Zm11.65656,0L28,22.17188V9.82812Zm-3.428,3.41418A2.3055,2.3055,0,0,1,16.986,20H14.986a2.30474,2.30474,0,0,1-1.41424-.58594l-1.99988-2L3.986,25h24l-7.58581-7.58594Z"/>
</symbol>
<symbol id="bi-calendar-week" viewBox="0 0 16 16">
<path fill-rule="evenodd" d="M3.5 0a.5.5 0 0 1 .5.5V1h8V.5a.5.5 0 0 1 1 0V1h1a2 2 0 0 1 2 2v11a2 2 0 0 1-2 2H2a2 2 0 0 1-2-2V3a2 2 0 0 1 2-2h1V.5a.5.5 0 0 1 .5-.5zM1 4v10a1 1 0 0 0 1 1h12a1 1 0 0 0 1-1V4H1z"/>
<path d="M11 6.5a.5.5 0 0 1 .5-.5h1a.5.5 0 0 1 .5.5v1a.5.5 0 0 1-.5.5h-1a.5.5 0 0 1-.5-.5v-1zm-3 0a.5.5 0 0 1 .5-.5h1a.5.5 0 0 1 .5.5v1a.5.5 0 0 1-.5.5h-1a.5.5 0 0 1-.5-.5v-1zm-5 3a.5.5 0 0 1 .5-.5h1a.5.5 0 0 1 .5.5v1a.5.5 0 0 1-.5.5h-1a.5.5 0 0 1-.5-.5v-1zm3 0a.5.5 0 0 1 .5-.5h1a.5.5 0 0 1 .5.5v1a.5.5 0 0 1-.5.5h-1a.5.5 0 0 1-.5-.5v-1z"/>
</symbol>
<symbol id="bi-code-slash" viewBox="0 0 16 16">
<path fill-rule="evenodd" d="M4.854 4.146a.5.5 0 0 1 0 .708L1.707 8l3.147 3.146a.5.5 0 0 1-.708.708l-3.5-3.5a.5.5 0 0 1 0-.708l3.5-3.5a.5.5 0 0 1 .708 0zm6.292 0a.5.5 0 0 0 0 .708L14.293 8l-3.147 3.146a.5.5 0 0 0 .708.708l3.5-3.5a.5.5 0 0 0 0-.708l-3.5-3.5a.5.5 0 0 0-.708 0zm-.999-3.124a.5.5 0 0 1 .33.625l-4 13a.5.5 0 0 1-.955-.294l4-13a.5.5 0 0 1 .625-.33z"/>
</symbol>
<symbol id="bi-pencil-square" viewBox="0 0 16 16">
<path d="M15.502 1.94a.5.5 0 0 1 0 .706L14.459 3.69l-2-2L13.502.646a.5.5 0 0 1 .707 0l1.293 1.293zm-1.75 2.456l-2-2L4.939 9.21a.5.5 0 0 0-.121.196l-.805 2.414a.25.25 0 0 0 .316.316l2.414-.805a.5.5 0 0 0 .196-.12l6.813-6.814z"/>
<path fill-rule="evenodd" d="M1 13.5A1.5 1.5 0 0 0 2.5 15h11a1.5 1.5 0 0 0 1.5-1.5v-6a.5.5 0 0 0-1 0v6a.5.5 0 0 1-.5.5h-11a.5.5 0 0 1-.5-.5v-11a.5.5 0 0 1 .5-.5H9a.5.5 0 0 0 0-1H2.5A1.5 1.5 0 0 0 1 2.5v11z"/>
</symbol>
<symbol id="icon-appleinc" viewBox="0 0 32 32">
<path d="M24.734 17.003c-0.040-4.053 3.305-5.996 3.454-6.093-1.88-2.751-4.808-3.127-5.851-3.171-2.492-0.252-4.862 1.467-6.127 1.467-1.261 0-3.213-1.43-5.28-1.392-2.716 0.040-5.221 1.579-6.619 4.012-2.822 4.897-0.723 12.151 2.028 16.123 1.344 1.944 2.947 4.127 5.051 4.049 2.026-0.081 2.793-1.311 5.242-1.311s3.138 1.311 5.283 1.271c2.18-0.041 3.562-1.981 4.897-3.931 1.543-2.255 2.179-4.439 2.216-4.551-0.048-0.022-4.252-1.632-4.294-6.473zM20.705 5.11c1.117-1.355 1.871-3.235 1.665-5.11-1.609 0.066-3.559 1.072-4.713 2.423-1.036 1.199-1.942 3.113-1.699 4.951 1.796 0.14 3.629-0.913 4.747-2.264z"></path>
</symbol>
<symbol id="icon-google" viewBox="0 0 32 32">
<path d="M16.319 13.713v5.487h9.075c-0.369 2.356-2.744 6.9-9.075 6.9-5.463 0-9.919-4.525-9.919-10.1s4.456-10.1 9.919-10.1c3.106 0 5.188 1.325 6.375 2.469l4.344-4.181c-2.788-2.612-6.4-4.188-10.719-4.188-8.844 0-16 7.156-16 16s7.156 16 16 16c9.231 0 15.363-6.494 15.363-15.631 0-1.050-0.113-1.85-0.25-2.65l-15.113-0.006z"></path>
</symbol>
<symbol id="icon-microsoftoutlook" viewBox="0 0 32 32">
<path d="M32 9.849v13.971c0 0.307-0.107 0.565-0.317 0.768-0.211 0.205-0.469 0.307-0.773 0.307h-11.396v-9.279l2.133 1.639c0.136 0.113 0.305 0.168 0.505 0.168 0.197 0 0.369-0.055 0.519-0.169zM19.513 7.155h11.396c0.281 0 0.524 0.084 0.724 0.256 0.2 0.171 0.312 0.4 0.331 0.68l-9.825 7.835-2.625-2.065zM17.872 1.152v29.695l-17.872-3.088v-23.433l17.875-3.173zM12.473 16.059c-0.027-1.511-0.417-2.763-1.172-3.752-0.74-0.987-1.7-1.508-2.841-1.552-1.099 0.044-2.039 0.564-2.8 1.552-0.76 0.989-1.14 2.243-1.16 3.752 0.020 1.489 0.42 2.729 1.18 3.721 0.761 0.987 1.699 1.511 2.801 1.568 1.14-0.047 2.099-0.565 2.86-1.56 0.76-0.997 1.16-2.24 1.18-3.729zM8.313 12.749c0.575 0.027 1.059 0.341 1.444 0.956 0.38 0.615 0.58 1.393 0.58 2.336 0 0.961-0.199 1.743-0.58 2.361-0.401 0.619-0.88 0.939-1.461 0.939s-1.060-0.301-1.46-0.92-0.58-1.4-0.58-2.339c0-0.94 0.18-1.721 0.58-2.32 0.379-0.6 0.861-0.92 1.441-0.961z"></path>
</symbol>
<symbol id="gi-wrench" viewBox="0 0 32 32">
<path d="M27.405,12.91907a6.38551,6.38551,0,0,1-7.78314,3.70154L8.82825,27.41418A1,1,0,0,1,7.414,27.41412L4.58594,24.58575A.99993.99993,0,0,1,4.586,23.17157L15.33209,12.42548a6.4047,6.4047,0,0,1,3.69947-7.92487,6.22745,6.22745,0,0,1,2.77825-.49127.4987.4987,0,0,1,.34015.84857L19.73254,7.27533a.4961.4961,0,0,0-.131.469l.82916,3.38044a.496.496,0,0,0,.36365.36364l3.38068.82935a.49614.49614,0,0,0,.469-.131l2.419-2.41889a.49433.49433,0,0,1,.8446.30078A6.22117,6.22117,0,0,1,27.405,12.91907Z"/>
</symbol>
<symbol id="bi-rss-fill" viewBox="0 0 16 16">
<path fill-rule="evenodd" d="M2 0a2 2 0 0 0-2 2v12a2 2 0 0 0 2 2h12a2 2 0 0 0 2-2V2a2 2 0 0 0-2-2H2zm1.5 2.5a1 1 0 0 0 0 2 8 8 0 0 1 8 8 1 1 0 1 0 2 0c0-5.523-4.477-10-10-10zm0 4a1 1 0 0 0 0 2 4 4 0 0 1 4 4 1 1 0 1 0 2 0 6 6 0 0 0-6-6zm.5 7a1.5 1.5 0 1 0 0-3 1.5 1.5 0 0 0 0 3z"/>
</symbol>
<symbol id="icon-file-pdf" viewBox="0 0 32 32">
<path d="M26.313 18.421c-0.427-0.42-1.372-0.643-2.812-0.662-0.974-0.011-2.147 0.075-3.38 0.248-0.552-0.319-1.122-0.665-1.568-1.083-1.202-1.122-2.205-2.68-2.831-4.394 0.041-0.16 0.075-0.301 0.108-0.444 0 0 0.677-3.846 0.498-5.146-0.025-0.178-0.040-0.23-0.088-0.369l-0.059-0.151c-0.184-0.425-0.545-0.875-1.111-0.85l-0.341-0.011c-0.631 0-1.146 0.323-1.281 0.805-0.411 1.514 0.013 3.778 0.781 6.711l-0.197 0.478c-0.55 1.34-1.238 2.689-1.846 3.88l-0.079 0.155c-0.639 1.251-1.22 2.313-1.745 3.213l-0.543 0.287c-0.040 0.021-0.97 0.513-1.188 0.645-1.852 1.106-3.079 2.361-3.282 3.357-0.065 0.318-0.017 0.725 0.313 0.913l0.525 0.264c0.228 0.114 0.468 0.172 0.714 0.172 1.319 0 2.85-1.643 4.959-5.324 2.435-0.793 5.208-1.452 7.638-1.815 1.852 1.043 4.129 1.767 5.567 1.767 0.255 0 0.475-0.024 0.654-0.072 0.276-0.073 0.508-0.23 0.65-0.444 0.279-0.42 0.335-0.998 0.26-1.59-0.023-0.176-0.163-0.393-0.315-0.541zM6.614 25.439c0.241-0.658 1.192-1.958 2.6-3.111 0.088-0.072 0.306-0.276 0.506-0.466-1.472 2.348-2.458 3.283-3.106 3.577zM14.951 6.24c0.424 0 0.665 1.069 0.685 2.070s-0.214 1.705-0.505 2.225c-0.241-0.77-0.357-1.984-0.357-2.778 0 0-0.018-1.517 0.177-1.517v0zM12.464 19.922c0.295-0.529 0.603-1.086 0.917-1.677 0.765-1.447 1.249-2.58 1.609-3.511 0.716 1.303 1.608 2.41 2.656 3.297 0.131 0.111 0.269 0.222 0.415 0.333-2.132 0.422-3.974 0.935-5.596 1.558v0zM25.903 19.802c-0.13 0.081-0.502 0.128-0.741 0.128-0.772 0-1.727-0.353-3.066-0.927 0.515-0.038 0.986-0.057 1.409-0.057 0.774 0 1.004-0.003 1.761 0.19s0.767 0.585 0.637 0.667v0z"></path>
<path d="M28.681 7.159c-0.694-0.947-1.662-2.053-2.724-3.116s-2.169-2.030-3.116-2.724c-1.612-1.182-2.393-1.319-2.841-1.319h-15.5c-1.378 0-2.5 1.121-2.5 2.5v27c0 1.378 1.121 2.5 2.5 2.5h23c1.378 0 2.5-1.122 2.5-2.5v-19.5c0-0.448-0.137-1.23-1.319-2.841v0zM24.543 5.457c0.959 0.959 1.712 1.825 2.268 2.543h-4.811v-4.811c0.718 0.556 1.584 1.309 2.543 2.268v0zM28 29.5c0 0.271-0.229 0.5-0.5 0.5h-23c-0.271 0-0.5-0.229-0.5-0.5v-27c0-0.271 0.229-0.5 0.5-0.5 0 0 15.499-0 15.5 0v7c0 0.552 0.448 1 1 1h7v19.5z"></path>
</symbol>
<symbol id="clippy" viewBox="0 0 896 1024">
<path d="M128 768h256v64H128v-64z m320-384H128v64h320v-64z m128 192V448L384 640l192 192V704h320V576H576z m-288-64H128v64h160v-64zM128 704h160v-64H128v64z m576 64h64v128c-1 18-7 33-19 45s-27 18-45 19H64c-35 0-64-29-64-64V192c0-35 29-64 64-64h192C256 57 313 0 384 0s128 57 128 128h192c35 0 64 29 64 64v320h-64V320H64v576h640V768zM128 256h512c0-35-29-64-64-64h-64c-35 0-64-29-64-64s-29-64-64-64-64 29-64 64-29 64-64 64h-64c-35 0-64 29-64 64z" />
</symbol>
<symbol id="gi-copy" viewBox="0 0 32 32">
<path d="M17,18.99976A1.993,1.993,0,0,0,16.72253,18H23.5a.5.5,0,0,1,.5.5v1a.5.5,0,0,1-.5.5H17ZM23.5,22H17v2h6.5a.5.5,0,0,0,.5-.5v-1A.5.5,0,0,0,23.5,22Zm.5-6.5v-1a.5.5,0,0,0-.5-.5h-8a.5.5,0,0,0-.5.5v1a.5.5,0,0,0,.5.5h8A.5.5,0,0,0,24,15.5ZM26,8H24V7a1,1,0,0,0-1-1H22a2,2,0,0,0-2-2H19a2,2,0,0,0-2,2H16a1,1,0,0,0-1,1V8H13a2.0026,2.0026,0,0,0-2,2v3a1.99989,1.99989,0,0,1,1.41406.58569L13,14.17163V10h2v1a1,1,0,0,0,1,1h7a1,1,0,0,0,1-1V10h2l.002,16H17v1a2.97194,2.97194,0,0,1-.18372,1H26a2.0026,2.0026,0,0,0,2-2V10A2.0026,2.0026,0,0,0,26,8ZM11,18.5a.5.5,0,0,0,.5.5H15l-4-4ZM9,20V15H5a1,1,0,0,0-1,1V27a1,1,0,0,0,1,1h9a1,1,0,0,0,1-1V21H10A1,1,0,0,1,9,20Z"/>
</symbol>
<symbol id="bi-volume-up-fill" viewBox="0 0 16 16">
<path d="M11.536 14.01A8.473 8.473 0 0 0 14.026 8a8.473 8.473 0 0 0-2.49-6.01l-.708.707A7.476 7.476 0 0 1 13.025 8c0 2.071-.84 3.946-2.197 5.303l.708.707z"/>
<path d="M10.121 12.596A6.48 6.48 0 0 0 12.025 8a6.48 6.48 0 0 0-1.904-4.596l-.707.707A5.483 5.483 0 0 1 11.025 8a5.483 5.483 0 0 1-1.61 3.89l.706.706z"/>
<path d="M8.707 11.182A4.486 4.486 0 0 0 10.025 8a4.486 4.486 0 0 0-1.318-3.182L8 5.525A3.489 3.489 0 0 1 9.025 8 3.49 3.49 0 0 1 8 10.475l.707.707z"/>
<path fill-rule="evenodd" d="M6.717 3.55A.5.5 0 0 1 7 4v8a.5.5 0 0 1-.812.39L3.825 10.5H1.5A.5.5 0 0 1 1 10V6a.5.5 0 0 1 .5-.5h2.325l2.363-1.89a.5.5 0 0 1 .529-.06z"/>
</symbol>
<symbol id="bi-info-circle-fill" viewBox="0 0 16 16">
<path fill-rule="evenodd" d="M8 16A8 8 0 1 0 8 0a8 8 0 0 0 0 16zm.93-9.412l-2.29.287-.082.38.45.083c.294.07.352.176.288.469l-.738 3.468c-.194.897.105 1.319.808 1.319.545 0 1.178-.252 1.465-.598l.088-.416c-.2.176-.492.246-.686.246-.275 0-.375-.193-.304-.533L8.93 6.588zM8 5.5a1 1 0 1 0 0-2 1 1 0 0 0 0 2z"/>
</symbol>
</defs>
</svg>
